<svg width="40" height="38" viewBox="0 0 40 38" fill="none" xmlns="http://www.w3.org/2000/svg">
<g clip-path="url(#clip0)">
<path d="M37.7516 16.0201L37.814 16.0331H11.0478L19.4621 8.02189C19.8742 7.63077 20.1002 7.10093 20.1002 6.54483C20.1002 5.98873 19.8742 5.4626 19.4621 5.07056L18.1529 3.82613C17.7411 3.43501 17.1925 3.21875 16.6075 3.21875C16.0221 3.21875 15.4732 3.43347 15.0615 3.82459L0.637732 17.5259C0.224399 17.9186 -0.0016173 18.4416 8.71264e-06 18.998C-0.0016173 19.5575 0.224399 20.0809 0.637732 20.4729L15.0615 34.1755C15.4732 34.5663 16.0218 34.7813 16.6075 34.7813C17.1925 34.7813 17.7411 34.566 18.1529 34.1755L19.4621 32.931C19.8742 32.5405 20.1002 32.019 20.1002 31.4629C20.1002 30.9072 19.8742 30.4132 19.4621 30.0223L10.9529 21.9663H37.7815C38.987 21.9663 40 20.9793 40 19.8346V18.0746C40 16.93 38.9571 16.0201 37.7516 16.0201Z" fill="#F9B759"/>
</g>
<defs>
<clipPath id="clip0">
<rect width="40" height="38" fill="white"/>
</clipPath>
</defs>
</svg>
