<?xml version="1.0" encoding="UTF-8" standalone="no"?>
<!DOCTYPE svg PUBLIC "-//W3C//DTD SVG 1.1//EN" "http://www.w3.org/Graphics/SVG/1.1/DTD/svg11.dtd">
<svg width="100%" height="100%" viewBox="0 0 64 64" version="1.1" xmlns="http://www.w3.org/2000/svg" xmlns:xlink="http://www.w3.org/1999/xlink" xml:space="preserve" xmlns:serif="http://www.serif.com/" style="fill-rule:evenodd;clip-rule:evenodd;stroke-linecap:round;stroke-linejoin:round;stroke-miterlimit:1.5;">
    <g id="midlertidig-bakgrun" serif:id="midlertidig bakgrun" transform="matrix(2.66667,0,0,2.66667,0,0)">
        <rect x="0" y="0" width="24" height="24" style="fill:rgb(242,242,242);"/>
    </g>
    <g id="glass" transform="matrix(3.87179,0,0,3.87179,-14.4614,-14.4614)">
        <path d="M15.803,9.529L15.803,6.708L7.041,6.708L7.041,18.5C8.501,20.466 14.141,20.162 15.803,18.5L15.803,17.289C16.499,17.239 18.058,16.253 18.386,15.637C18.857,14.751 18.849,12.494 18.386,11.391C17.986,10.439 16.39,10.443 15.803,9.529ZM16.931,11.391C17.462,11.391 17.727,12.3 17.727,13.472C17.727,14.643 17.462,15.637 16.931,15.637C16.4,15.637 16.176,14.643 16.176,13.472C16.176,12.3 16.4,11.391 16.931,11.391Z" style="fill:rgb(175,193,191);"/>
    </g>
    <g id="øl" transform="matrix(0.0307938,0,0,0.0307938,4.24172,-23.1358)">
        <path d="M1314.33,1354L343.163,1347L343.163,2522.99C365.381,2635.59 547.167,2679.03 828.744,2679.23C1124.55,2673.2 1295.16,2624.12 1314.33,2522.99L1314.33,1354Z" style="fill:url(#_Linear1);"/>
    </g>
    <g id="Skum" transform="matrix(0.0310657,0,0,0.0292529,4.76184,-20.3024)">
        <path d="M161.343,1468.04C226.429,1335.66 254.906,1255.09 374.708,1373.55C417.845,1416.21 479.723,1411.45 517.815,1461.15C569.826,1529 510.33,1695.64 629.662,1710.54C880.66,1741.9 791.48,1432.4 871.689,1419.94C912.605,1413.59 941.782,1470.93 983.126,1467.44C1067.51,1460.32 1101.27,1367.47 1173.46,1336.26C1273.92,1292.84 1476.59,1443.11 1439.21,1219.68C1426.51,1143.81 1351.07,1097.76 1322.27,1028.26C1300.58,975.953 1318.6,918.071 1295,867.033C1249.34,768.309 1137.64,808.944 1056.04,806.579C1019.67,805.525 989.114,786.55 951.511,790.671C914.866,794.686 881.181,816.224 844.299,815.633C759.728,814.279 696.093,734.486 604.784,748.988C559.856,756.124 531.848,794.569 488.907,806.013C462.748,812.984 432.672,791.607 408.966,784.284C343.745,764.135 262.293,788.235 217.848,839.894C173.898,890.978 160.811,957.107 120.607,1007.43C95.842,1038.43 41.009,1066.93 37.578,1109.97C37.473,1111.28 37.347,1112.6 37.317,1113.92C36.001,1171.15 74.219,1218.56 79.613,1274.47C85.727,1337.83 54.31,1402.16 87.969,1461.09C93.627,1470.99 151.706,1485.43 161.343,1468.04C175.327,1442.79 176.211,1428.58 192.514,1404.72" style="fill:rgb(253,249,233);stroke:rgb(175,193,191);stroke-width:13.26px;"/>
    </g>
    <g id="bobler" transform="matrix(0.0308679,0,0,0.0308679,5.23687,-23.7594)">
        <g transform="matrix(0.471545,0,0,0.471545,242.016,1418.36)">
            <circle cx="536.5" cy="2393.5" r="61.5" style="fill:rgb(157,85,0);fill-opacity:0.33;"/>
        </g>
        <g transform="matrix(0.715447,0,0,0.715447,187.163,732.577)">
            <circle cx="536.5" cy="2393.5" r="61.5" style="fill:rgb(157,85,0);fill-opacity:0.33;"/>
        </g>
        <g transform="matrix(0.715447,0,0,0.715447,68.1626,661.577)">
            <circle cx="536.5" cy="2393.5" r="61.5" style="fill:rgb(157,85,0);fill-opacity:0.33;"/>
        </g>
        <g transform="matrix(0.292683,0,0,0.292683,266.976,1744.46)">
            <circle cx="536.5" cy="2393.5" r="61.5" style="fill:rgb(157,85,0);fill-opacity:0.33;"/>
        </g>
        <g transform="matrix(0.365854,0,0,0.365854,332.22,1404.83)">
            <circle cx="536.5" cy="2393.5" r="61.5" style="fill:rgb(157,85,0);fill-opacity:0.33;"/>
        </g>
        <g transform="matrix(0.365854,0,0,0.365854,284.22,1417.83)">
            <circle cx="536.5" cy="2393.5" r="61.5" style="fill:rgb(157,85,0);fill-opacity:0.33;"/>
        </g>
        <g transform="matrix(0.552846,0,0,0.552846,282.398,755.764)">
            <circle cx="536.5" cy="2393.5" r="61.5" style="fill:rgb(157,85,0);fill-opacity:0.33;"/>
        </g>
        <g transform="matrix(0.626016,0,0,0.626016,130.642,693.13)">
            <circle cx="536.5" cy="2393.5" r="61.5" style="fill:rgb(157,85,0);fill-opacity:0.33;"/>
        </g>
        <g transform="matrix(0.658537,0,0,0.658537,309.195,648.293)">
            <circle cx="536.5" cy="2393.5" r="61.5" style="fill:rgb(157,85,0);fill-opacity:0.33;"/>
        </g>
        <g transform="matrix(0.487805,0,0,0.487805,248.293,781.439)">
            <circle cx="536.5" cy="2393.5" r="61.5" style="fill:rgb(157,85,0);fill-opacity:0.33;"/>
        </g>
        <g transform="matrix(0.341463,0,0,0.341463,248.805,1240.71)">
            <circle cx="536.5" cy="2393.5" r="61.5" style="fill:rgb(157,85,0);fill-opacity:0.33;"/>
        </g>
        <g transform="matrix(0.341463,0,0,0.341463,212.805,1295.71)">
            <circle cx="536.5" cy="2393.5" r="61.5" style="fill:rgb(157,85,0);fill-opacity:0.33;"/>
        </g>
        <g transform="matrix(0.447154,0,0,0.447154,400.602,911.236)">
            <circle cx="536.5" cy="2393.5" r="61.5" style="fill:rgb(157,85,0);fill-opacity:0.33;"/>
        </g>
    </g>
    <g id="gjennskinn" transform="matrix(3.87179,0,0,3.87179,-14.4614,-14.4614)">
        <g id="gjennskinn1" serif:id="gjennskinn" transform="matrix(1.28205,0,0,1.04381,-6.60441,0.562559)">
            <path d="M15.523,10.812C15.523,10.592 15.378,10.413 15.198,10.413C15.019,10.413 14.874,10.592 14.874,10.812L14.874,16.475C14.874,16.695 15.019,16.874 15.198,16.874C15.378,16.874 15.523,16.695 15.523,16.475L15.523,10.812Z" style="fill:white;fill-opacity:0.33;"/>
        </g>
        <g id="gjernnskinn" transform="matrix(1.28205,0,0,1.04381,-5.33899,-0.555893)">
            <path d="M15.523,10.812C15.523,10.592 15.378,10.413 15.198,10.413C15.019,10.413 14.874,10.592 14.874,10.812L14.874,16.475C14.874,16.695 15.019,16.874 15.198,16.874C15.378,16.874 15.523,16.695 15.523,16.475L15.523,10.812Z" style="fill:white;fill-opacity:0.33;"/>
        </g>
    </g>
    <defs>
        <linearGradient id="_Linear1" x1="0" y1="0" x2="1" y2="0" gradientUnits="userSpaceOnUse" gradientTransform="matrix(-11,-1175,1637.84,-15.3329,855,3206)"><stop offset="0" style="stop-color:rgb(255,213,26);stop-opacity:1"/><stop offset="1" style="stop-color:rgb(254,184,0);stop-opacity:1"/></linearGradient>
    </defs>
</svg>
