<?xml version="1.0" encoding="UTF-8" standalone="no"?>
<!DOCTYPE svg PUBLIC "-//W3C//DTD SVG 1.1//EN" "http://www.w3.org/Graphics/SVG/1.1/DTD/svg11.dtd">
<svg width="100%" height="100%" viewBox="0 0 64 64" version="1.1" xmlns="http://www.w3.org/2000/svg" xmlns:xlink="http://www.w3.org/1999/xlink" xml:space="preserve" xmlns:serif="http://www.serif.com/" style="fill-rule:evenodd;clip-rule:evenodd;stroke-linecap:round;stroke-linejoin:round;stroke-miterlimit:1.5;">
    <g id="midlertidig-bakgrun" serif:id="midlertidig bakgrun" transform="matrix(2.66667,0,0,2.66667,0,0)">
        <rect x="0" y="0" width="24" height="24" style="fill:rgb(242,242,242);"/>
    </g>
    <g transform="matrix(1.64608,0,0,1.64608,-20.5875,-25.378)">
        <path d="M30.06,46.823C24.703,38.175 22.044,29.189 26.102,19.364L38.185,19.446C41.395,28.715 39.626,37.831 33.551,47.209L33.798,46.824L33.801,46.823C33.653,47.041 33.547,47.405 33.569,47.925L33.565,47.916L33.565,50.879C33.585,51.259 34.02,51.533 34.17,51.58C36.571,51.77 38.281,52.257 38.281,52.828C38.281,53.062 37.988,53.291 37.432,53.494L26.462,53.494C25.906,53.291 25.614,53.062 25.614,52.828C25.614,52.261 27.301,51.776 29.675,51.584C29.806,51.552 30.245,51.289 30.291,50.915L30.291,47.654C30.275,47.32 30.201,47.067 30.101,46.89L30.06,46.823L30.06,46.823Z" style="fill:rgb(175,193,191);"/>
    </g>
    <g transform="matrix(1.52525,0,0,1.52525,-16.7016,-22.2079)">
        <path d="M26.102,19.364C21.989,29.323 24.776,38.419 30.28,47.176C31.257,49.042 32.368,48.903 33.551,47.209C39.626,37.831 41.395,28.715 38.185,19.446L26.102,19.364" style="fill:url(#_Linear1);"/>
        <clipPath id="_clip2">
            <path d="M26.102,19.364C21.989,29.323 24.776,38.419 30.28,47.176C31.257,49.042 32.368,48.903 33.551,47.209C39.626,37.831 41.395,28.715 38.185,19.446L26.102,19.364"/>
        </clipPath>
        <g clip-path="url(#_clip2)">
            <g transform="matrix(1.07922,0,0,1.07922,-1.76837,-2.25428)">
                <path d="M37.326,26.469C36.358,27.638 32.845,42.112 32.756,43.659C32.667,45.207 35.987,38.596 36.794,35.756C37.822,32.142 38.269,25.329 37.326,26.469Z" style="fill:white;fill-opacity:0.25;"/>
            </g>
        </g>
    </g>
    <g id="Skum" transform="matrix(0.0182518,0,0,0.0148834,18.5099,-9.79843)">
        <path d="M161.343,1468.04C226.429,1335.66 254.906,1255.09 374.708,1373.55C417.845,1416.21 479.723,1411.45 517.815,1461.15C569.826,1529 510.33,1695.64 629.662,1710.54C880.66,1741.9 791.48,1432.4 871.689,1419.94C912.605,1413.59 941.782,1470.93 983.126,1467.44C1067.51,1460.32 1101.27,1367.47 1173.46,1336.26C1273.92,1292.84 1476.59,1443.11 1439.21,1219.68C1426.51,1143.81 1351.07,1097.76 1322.27,1028.26C1300.58,975.953 1318.6,918.071 1295,867.033C1249.34,768.309 1137.64,808.944 1056.04,806.579C1019.67,805.525 989.114,786.55 951.511,790.671C914.866,794.686 881.181,816.224 844.299,815.633C759.728,814.279 696.093,734.486 604.784,748.988C559.856,756.124 531.848,794.569 488.907,806.013C462.748,812.984 432.672,791.607 408.966,784.284C343.745,764.135 262.293,788.235 217.848,839.894C173.898,890.978 160.811,957.107 120.607,1007.43C95.842,1038.43 41.009,1066.93 37.578,1109.97C37.473,1111.28 37.347,1112.6 37.317,1113.92C36.001,1171.15 74.219,1218.56 79.613,1274.47C85.727,1337.83 54.31,1402.16 87.969,1461.09C93.627,1470.99 151.706,1485.43 161.343,1468.04C175.327,1442.79 176.211,1428.58 192.514,1404.72" style="fill:rgb(253,249,233);stroke:rgb(175,193,191);stroke-width:24.02px;"/>
    </g>
    <g id="bobler" transform="matrix(0.0233098,-0.00332051,0.00332051,0.0233098,7.3132,-17.1842)">
        <g transform="matrix(0.471545,1.3088e-17,-1.3088e-17,0.471545,262.285,1601.22)">
            <circle cx="536.5" cy="2393.5" r="61.5" style="fill:rgb(157,85,0);fill-opacity:0.33;"/>
        </g>
        <g transform="matrix(0.715447,1.98576e-17,-1.98576e-17,0.715447,220.285,911.368)">
            <circle cx="536.5" cy="2393.5" r="61.5" style="fill:rgb(157,85,0);fill-opacity:0.33;"/>
        </g>
        <g transform="matrix(0.715447,1.98576e-17,-1.98576e-17,0.715447,105.518,806.121)">
            <circle cx="536.5" cy="2393.5" r="61.5" style="fill:rgb(157,85,0);fill-opacity:0.33;"/>
        </g>
        <g transform="matrix(0.292683,8.12358e-18,-8.12358e-18,0.292683,313.713,1948.7)">
            <circle cx="536.5" cy="2393.5" r="61.5" style="fill:rgb(157,85,0);fill-opacity:0.33;"/>
        </g>
        <g transform="matrix(0.365854,1.01545e-17,-1.01545e-17,0.365854,357.355,1584.85)">
            <circle cx="536.5" cy="2393.5" r="61.5" style="fill:rgb(157,85,0);fill-opacity:0.33;"/>
        </g>
        <g transform="matrix(0.365854,1.01545e-17,-1.01545e-17,0.365854,268.702,1526.76)">
            <circle cx="536.5" cy="2393.5" r="61.5" style="fill:rgb(157,85,0);fill-opacity:0.33;"/>
        </g>
        <g transform="matrix(0.552846,1.53445e-17,-1.53445e-17,0.552846,245.655,976.053)">
            <circle cx="536.5" cy="2393.5" r="61.5" style="fill:rgb(157,85,0);fill-opacity:0.33;"/>
        </g>
        <g transform="matrix(0.626016,1.73754e-17,-1.73754e-17,0.626016,79.87,817.242)">
            <circle cx="536.5" cy="2393.5" r="61.5" style="fill:rgb(157,85,0);fill-opacity:0.33;"/>
        </g>
        <g transform="matrix(0.658537,1.82781e-17,-1.82781e-17,0.658537,282.421,850.55)">
            <circle cx="536.5" cy="2393.5" r="61.5" style="fill:rgb(157,85,0);fill-opacity:0.33;"/>
        </g>
        <g transform="matrix(0.487805,1.35393e-17,-1.35393e-17,0.487805,316.477,950.796)">
            <circle cx="536.5" cy="2393.5" r="61.5" style="fill:rgb(157,85,0);fill-opacity:0.33;"/>
        </g>
        <g transform="matrix(0.341463,9.47751e-18,-9.47751e-18,0.341463,334.771,1362.12)">
            <circle cx="536.5" cy="2393.5" r="61.5" style="fill:rgb(157,85,0);fill-opacity:0.33;"/>
        </g>
        <g transform="matrix(0.341463,9.47751e-18,-9.47751e-18,0.341463,283.205,1415.63)">
            <circle cx="536.5" cy="2393.5" r="61.5" style="fill:rgb(157,85,0);fill-opacity:0.33;"/>
        </g>
        <g transform="matrix(0.447154,1.2411e-17,-1.2411e-17,0.447154,384.611,1247.31)">
            <circle cx="536.5" cy="2393.5" r="61.5" style="fill:rgb(157,85,0);fill-opacity:0.33;"/>
        </g>
    </g>
    <defs>
        <linearGradient id="_Linear1" x1="0" y1="0" x2="1" y2="0" gradientUnits="userSpaceOnUse" gradientTransform="matrix(1.78578e-15,-29.164,29.164,1.78578e-15,31.9873,48.5279)"><stop offset="0" style="stop-color:rgb(255,213,26);stop-opacity:1"/><stop offset="1" style="stop-color:rgb(254,184,0);stop-opacity:1"/></linearGradient>
    </defs>
</svg>
