<svg width="118" height="160" viewBox="0 0 118 160" fill="none" xmlns="http://www.w3.org/2000/svg">
<g clip-path="url(#clip0)">
<path fill-rule="evenodd" clip-rule="evenodd" d="M57.2091 19.5062C53.1649 19.5062 49.4225 20.093 45.9923 20.9472C42.5907 21.7946 39.4628 22.9664 36.6295 24.3748C28.035 28.6471 21.2895 34.8118 16.1719 42.6342C14.5017 45.1867 12.9564 48.0921 11.6725 51.1864C9.13502 57.3057 7.3868 64.4667 7.3868 73.2571C7.3868 77.505 7.98134 81.4616 8.78465 85.0461C9.5934 88.6493 10.6944 91.8929 12.0378 94.9121C16.0289 103.884 21.9348 111.171 29.3339 116.502C31.892 118.348 34.6095 119.935 37.4505 121.243C43.3114 123.943 50.022 125.76 58.395 125.76C66.3119 125.76 73.2707 123.627 78.9742 120.891C84.7816 118.104 89.5815 114.293 93.7478 109.904C97.9563 105.469 101.367 100.23 103.962 94.111C106.572 87.9549 108.294 80.8126 108.248 72.0404C108.204 63.6379 106.236 56.4028 103.627 50.3538C100.972 44.1977 97.4558 39.2702 93.2005 34.7855C89.0188 30.3794 84.0886 26.7747 78.214 24.0228C73.4886 21.8037 68.463 20.3767 63.3193 19.7936C61.4417 19.5822 59.2006 19.4086 57.2699 19.5062H57.2091V19.5062ZM56.5102 19.0255H59.1244C59.1312 19.0504 59.1498 19.0628 59.1852 19.0571C68.371 19.3019 75.9516 21.5832 82.4398 24.8239C92.207 29.7012 99.7704 36.7574 105.664 45.741C107.673 48.8031 109.394 52.0645 110.802 55.4788C113.73 62.6082 115.635 70.7003 115.635 80.6892C115.634 85.5693 114.971 90.0544 114.054 94.1431C111.323 106.315 105.621 115.746 98.5209 123.229C93.7224 128.285 88.1074 132.411 81.4972 135.562C74.9191 138.699 67.0971 140.88 57.7873 140.88C48.4771 140.88 40.6841 138.669 34.107 135.562C27.4831 132.433 21.884 128.256 17.0832 123.197C12.3437 118.202 8.24684 112.346 5.25917 105.386C3.776 101.933 2.48118 98.224 1.58075 94.111C0.680769 90.0037 0 85.5349 0 80.6251C0 70.6917 1.89118 62.547 4.86342 55.4788C7.80252 48.4938 11.6856 42.3956 16.4456 37.3801C21.2582 32.3086 26.7048 28.023 33.2252 24.7914C39.7274 21.5689 47.3157 19.3201 56.5102 19.0255" fill="#231F20"/>
<path fill-rule="evenodd" clip-rule="evenodd" d="M35.7667 94.0478C35.7241 93.7943 35.5207 93.3582 35.3038 93.273C34.9961 93.1525 34.3839 93.2443 33.9427 93.2443H31.1656C30.6855 93.2443 30.1263 93.1539 29.7769 93.2443C28.9713 93.4538 29.1161 96.123 29.7769 96.3143C30.1309 96.4161 30.6855 96.3143 31.1384 96.3143H35.3042C35.7572 95.9599 35.9079 94.8852 35.7667 94.0478ZM35.6855 53.3667C35.3487 54.8814 35.5221 57.0856 35.5221 58.8461V81.4534C35.5221 83.3803 35.4322 85.4028 35.8761 86.7319C36.5437 88.7358 38.0459 90.2423 40.0138 90.8349C40.749 91.0558 41.4661 91.1218 42.4373 91.1218C53.0256 91.1218 63.9814 91.239 74.6173 91.1218C76.208 91.1036 77.5192 90.3958 78.4555 89.5436C79.4153 88.6693 80.1846 87.4976 80.4973 86.0432C80.8336 84.4783 80.6607 82.429 80.6607 80.5638V57.9566C80.6607 55.9756 80.7351 53.9889 80.3067 52.678C79.8588 51.3064 79.0477 50.2843 77.9925 49.4646C76.9192 48.6305 75.5917 48.2307 73.8004 48.2307H46.9835C45.2308 48.2307 43.2552 48.1384 41.5927 48.2594C38.512 48.4847 36.3327 50.4479 35.6855 53.3667V53.3667ZM32.8263 37.9023C32.8217 37.8783 32.8371 37.8755 32.8539 37.8745H82.6213C83.2499 37.8745 83.844 37.974 84.3904 38.1041C87.5651 38.8569 89.7385 40.8158 90.8976 43.813C91.2721 44.7815 91.6047 45.9427 91.6047 47.2838V89.1992C91.6047 90.6134 91.6519 91.9769 91.4967 93.273C91.2099 95.6538 90.1506 97.4449 88.8281 98.839C88.1986 99.5028 87.394 100.086 86.4867 100.561C85.599 101.024 84.4603 101.406 83.3556 101.449C80.7397 101.553 78.0747 101.478 75.4061 101.478C62.2291 101.479 48.783 101.477 35.6033 101.478C34.1615 101.479 32.9052 101.514 31.8192 101.277C30.7009 101.034 29.8241 100.649 28.9604 100.102C27.3406 99.0743 26.0444 97.6476 25.2579 95.6261C24.8948 94.6935 24.5771 93.4562 24.5771 92.1262V47.0542C24.5771 46.7419 24.652 46.4549 24.6861 46.1369C24.9552 43.6222 26.0875 41.9062 27.3547 40.5705C28.5197 39.3428 30.0051 38.4518 31.9549 38.0754C32.2263 38.0223 32.5853 37.9974 32.8263 37.9023" fill="#231F20"/>
<path fill-rule="evenodd" clip-rule="evenodd" d="M49.9508 58.3588C49.9331 58.9997 49.9871 59.7161 49.924 60.3092C49.5899 60.5913 49.1833 60.7721 48.8075 60.9692C46.9254 61.9558 44.9898 62.9893 43.0632 63.9817C42.2957 64.3767 41.551 64.8354 40.749 65.1582C40.7672 64.4695 40.7127 63.7043 40.7763 63.0634C41.0272 62.8535 41.3358 62.6961 41.6204 62.5469C43.6468 61.4833 45.7772 60.4235 47.8 59.3335C45.4944 58.0628 43.0845 56.9006 40.749 55.6619V53.4811C43.8638 55.0565 46.9095 56.705 49.9508 58.3583V58.3588ZM51.9109 66.9077H63.8629C63.9251 67.5878 63.8725 68.3893 63.8906 69.1167C59.9422 69.1651 55.8045 69.1651 51.8569 69.1167V66.9938C51.8555 66.945 51.8773 66.9192 51.9114 66.9077H51.9109ZM73.9279 92.3175C74.1893 92.1267 74.5133 92.0707 74.7793 91.9971C78.116 91.0688 80.761 88.9759 81.8924 85.6869C82.0032 85.3627 82.0771 85.0537 82.2369 84.6969C82.2628 84.6912 82.3463 84.4817 82.3481 84.5008C82.4706 87.0662 81.5888 89.0357 80.3725 90.3308C78.9088 91.8899 76.714 92.8598 73.9279 92.3175V92.3175ZM28.4979 102.569C29.5808 102.411 31.0444 102.539 32.2548 102.539H86.1055C86.7613 102.539 87.4035 102.47 87.9027 102.597C88.6334 102.783 89.1935 103.455 89.2093 104.347C89.2239 105.172 88.7301 105.967 87.984 106.184C87.5247 106.316 86.828 106.241 86.1599 106.241H29.9135C29.2327 106.241 28.6082 106.286 28.1707 106.126C26.6067 105.553 26.7334 102.826 28.4975 102.568" fill="#231F20"/>
</g>
<defs>
<clipPath id="clip0">
<rect width="118" height="160" fill="white"/>
</clipPath>
</defs>
</svg>
