<svg width="35" height="44" viewBox="0 0 35 44" fill="none" xmlns="http://www.w3.org/2000/svg">
<path d="M17.5 22C23.0234 22 27.5 17.0758 27.5 11C27.5 4.92422 23.0234 0 17.5 0C11.9766 0 7.5 4.92422 7.5 11C7.5 17.0758 11.9766 22 17.5 22ZM24.5 24.75H23.1953C21.4609 25.6266 19.5312 26.125 17.5 26.125C15.4688 26.125 13.5469 25.6266 11.8047 24.75H10.5C4.70312 24.75 0 29.9234 0 36.3V39.875C0 42.1523 1.67969 44 3.75 44H31.25C33.3203 44 35 42.1523 35 39.875V36.3C35 29.9234 30.2969 24.75 24.5 24.75Z" fill="white"/>
</svg>
