<svg width="250" height="100" viewBox="0 0 250 100" fill="none" xmlns="http://www.w3.org/2000/svg">
<path d="M50.898 30.6051V15.4951C50.898 14.1194 49.7174 13 48.2662 13H42.0461C40.595 13 39.4146 14.1192 39.4146 15.4951V30.5926C39.362 31.2317 37.7629 34.0204 36.7046 35.8657C36.4071 36.3845 36.6095 37.0338 37.1568 37.3158C37.7041 37.5981 38.389 37.406 38.6864 36.8873C40.8066 33.1902 41.6702 31.5868 41.6702 30.6051V29.2347H48.6421V30.6051C48.6421 31.6381 49.652 33.4443 51.7527 37.1064C54.22 41.4077 57.5991 47.2983 57.5991 50.2732V50.9194H32.7131V50.2732C32.7131 47.7313 35.3506 42.8654 36.2173 41.2664C36.502 40.7411 36.2836 40.0965 35.7296 39.8266C35.1754 39.5567 34.4955 39.7638 34.2108 40.289C31.6149 45.0782 30.4572 48.1576 30.4572 50.2733V66.1186C30.2718 66.1993 30.0884 66.2877 29.9084 66.3864C28.5945 67.1055 27.6426 68.193 27.1107 69.4321C25.6467 67.444 25.1555 65.2506 25.6492 62.884L27.7778 62.2967C28.3759 62.1317 28.7197 61.5383 28.5456 60.9711C28.3714 60.4041 27.7455 60.0782 27.1474 60.2433L20.8862 61.9705C20.2881 62.1354 19.9443 62.7288 20.1184 63.2959C20.2619 63.7632 20.7122 64.0668 21.201 64.0668C21.4796 64.0668 21.5105 64.0117 23.2678 63.5408C23.1281 64.8478 23.2395 66.119 23.5959 67.3401C22.6342 66.5724 21.6264 65.8216 20.4904 65.2306C18.6527 64.2724 16.6011 63.9794 14.8608 64.4271C12.6929 64.9864 11.0782 66.7587 10.9338 68.7366C10.8366 70.0629 11.4242 71.3939 12.4681 72.2108C13.1957 72.7793 14.1052 73.0769 15.0097 73.0769C17.1761 73.0769 18.7526 71.4181 18.689 69.4005C18.6703 68.8101 18.1437 68.3444 17.5278 68.3637C16.9052 68.3813 16.4155 68.8741 16.4342 69.4644C16.4788 70.8812 14.9109 71.3482 13.9034 70.5611C13.4196 70.1824 13.1372 69.5245 13.1841 68.8846C13.2633 67.7993 14.1964 66.8148 15.4523 66.4909C16.6327 66.1871 18.0728 66.4108 19.4041 67.105C20.6364 67.746 21.7789 68.6753 22.8837 69.5739C23.0136 69.6795 23.1437 69.783 23.2733 69.8881C22.5978 70.0203 21.9386 70.2501 21.324 70.5866C19.4285 71.6244 18.2044 73.4818 18.05 75.5547C18.0061 76.1439 18.4742 76.6551 19.0955 76.6968C19.1226 76.6986 19.1495 76.6995 19.1762 76.6995C19.7629 76.6995 20.2582 76.2689 20.3001 75.7056C20.4018 74.3421 21.2062 73.1208 22.4519 72.4387C23.7496 71.7284 25.3451 71.7168 26.6493 72.3749C26.7517 73.4192 27.1254 74.4356 27.8097 75.3648C27.0089 76.1275 26.427 77.0775 26.1255 78.1448C25.9616 78.725 25.8883 79.3144 25.9013 79.8988C24.5881 80.2858 23.123 80.0605 22.0037 79.2593C21.5066 78.9035 20.7991 78.997 20.4239 79.4684C20.0485 79.9397 20.1472 80.6103 20.6444 80.9661C21.8048 81.7968 23.2102 82.222 24.6208 82.222C25.1991 82.222 25.7778 82.1478 26.3413 82.0034C27.0796 83.8079 28.6638 85.2476 30.7781 85.7847C31.345 85.9287 31.9203 86 32.4918 86C32.6179 86 32.7434 85.9952 32.869 85.9883C33.0556 86.0037 40.745 85.9969 57.223 85.9983C58.6741 85.9984 59.8548 84.8791 59.8548 83.5032V50.2733C59.8548 46.7545 56.4612 40.8384 53.7344 36.0848C52.4939 33.9222 50.95 31.2308 50.898 30.6051V30.6051ZM41.6702 27.096V15.4951C41.6702 15.2986 41.8389 15.1387 42.0461 15.1387H48.2662C48.4734 15.1387 48.6421 15.2986 48.6421 15.4951V27.0961H41.6702V27.096ZM32.7131 53.058H57.5991V66.432L45.3883 75.4127C45.2514 75.5128 45.0606 75.5128 44.9257 75.414L39.7667 71.619C39.7411 70.609 39.4596 69.5945 38.8962 68.6696C37.5946 66.532 35.1506 65.401 32.7129 65.5683V53.058H32.7131ZM31.0362 68.2385C33.1011 67.1084 35.7508 67.7815 36.9428 69.7391C37.9254 71.3522 37.6114 73.38 36.2775 74.6667C34.3789 73.3989 31.8437 73.1373 29.6507 74.1304C28.1868 72.1276 28.8766 69.4204 31.0362 68.2385V68.2385ZM28.7366 81.8091C28.1591 80.8608 28.0057 79.7561 28.3047 78.6984C28.6036 77.6408 29.319 76.7567 30.3193 76.2092C30.9986 75.8373 31.7408 75.6608 32.4741 75.6608C36.9049 75.6608 38.4494 81.2261 34.6433 83.3096C32.5785 84.4395 29.9287 83.7665 28.7366 81.8091V81.8091ZM57.2231 83.8596H37.4382C39.2334 81.9054 39.621 79.0071 38.1796 76.6403C38.0828 76.4812 37.9782 76.3289 37.8692 76.1811C38.5228 75.5543 39.0167 74.8112 39.337 74.0097L43.5446 77.105C44.019 77.4524 44.5871 77.6264 45.1558 77.6264C45.7249 77.6264 46.2941 77.4522 46.7695 77.1038L57.5992 69.1389V83.5032C57.5991 83.6996 57.4305 83.8596 57.2231 83.8596V83.8596Z" fill="white"/>
<path d="M45.156 68.3374C48.3013 68.3374 50.8601 65.5803 50.8601 62.1913C50.8601 58.8024 48.3013 56.0452 45.156 56.0452C42.0109 56.0452 39.4522 58.8022 39.4522 62.1913C39.4522 65.5803 42.0109 68.3374 45.156 68.3374V68.3374ZM45.156 58.1839C47.0574 58.1839 48.6042 59.9816 48.6042 62.1913C48.6042 64.4011 47.0574 66.1989 45.156 66.1989C43.2548 66.1989 41.7079 64.4011 41.7079 62.1913C41.7079 59.9816 43.2548 58.1839 45.156 58.1839V58.1839Z" fill="white"/>
<path d="M78.4763 83.1998L73.571 79.9765C73.4488 79.8962 73.3205 79.8277 73.1884 79.7692V71.1535C75.0059 70.907 76.701 70.0732 77.9575 68.7794C79.4716 67.2202 80.2342 65.1147 80.0497 63.0023L79.1235 52.4242C79.0504 51.5802 78.2938 50.9191 77.4007 50.9191H66.7201C65.8273 50.9191 65.0706 51.5802 64.9976 52.4232L64.0711 63.0025C63.8868 65.1146 64.6494 67.2201 66.1635 68.7793C67.4199 70.073 69.1151 70.9068 70.9326 71.1534V79.7691C70.8004 79.8277 70.6721 79.8961 70.5498 79.9765L65.6445 83.1996C65.0591 83.5843 64.8085 84.2758 65.021 84.9204C65.2335 85.565 65.8551 85.998 66.5673 85.998H77.5534C78.2658 85.998 78.887 85.5649 79.0997 84.9204C79.3123 84.276 79.0616 83.5845 78.4763 83.1998V83.1998ZM67.8231 67.3308C66.7188 66.1938 66.1847 64.7192 66.3192 63.1792L67.2056 53.0578H76.9151L77.8014 63.179C77.936 64.7192 77.4018 66.1938 76.2976 67.3308C75.194 68.4673 73.6892 69.0931 72.0604 69.0931C70.4315 69.0931 68.9267 68.4673 67.8231 67.3308V67.3308ZM68.6003 83.8596L71.8346 81.7345C71.9695 81.6458 72.151 81.6458 72.2859 81.7345L75.5202 83.8598H68.6003V83.8596Z" fill="white"/>
<path d="M130.112 62.2L122.744 79H120.368L112.976 62.2H115.568L121.616 76L127.712 62.2H130.112ZM131.942 66.28H134.246V79H131.942V66.28ZM133.094 63.832C132.646 63.832 132.27 63.688 131.966 63.4C131.678 63.112 131.534 62.76 131.534 62.344C131.534 61.928 131.678 61.576 131.966 61.288C132.27 60.984 132.646 60.832 133.094 60.832C133.542 60.832 133.91 60.976 134.198 61.264C134.502 61.536 134.654 61.88 134.654 62.296C134.654 62.728 134.502 63.096 134.198 63.4C133.91 63.688 133.542 63.832 133.094 63.832ZM145.437 66.16C147.053 66.16 148.333 66.632 149.277 67.576C150.237 68.504 150.717 69.872 150.717 71.68V79H148.413V71.944C148.413 70.712 148.117 69.784 147.525 69.16C146.933 68.536 146.085 68.224 144.981 68.224C143.733 68.224 142.749 68.592 142.029 69.328C141.309 70.048 140.949 71.088 140.949 72.448V79H138.645V66.28H140.853V68.2C141.317 67.544 141.941 67.04 142.725 66.688C143.525 66.336 144.429 66.16 145.437 66.16ZM166.547 72.712C166.547 72.888 166.531 73.12 166.499 73.408H156.179C156.323 74.528 156.811 75.432 157.643 76.12C158.491 76.792 159.539 77.128 160.787 77.128C162.307 77.128 163.531 76.616 164.459 75.592L165.731 77.08C165.155 77.752 164.435 78.264 163.571 78.616C162.723 78.968 161.771 79.144 160.715 79.144C159.371 79.144 158.179 78.872 157.139 78.328C156.099 77.768 155.291 76.992 154.715 76C154.155 75.008 153.875 73.888 153.875 72.64C153.875 71.408 154.147 70.296 154.691 69.304C155.251 68.312 156.011 67.544 156.971 67C157.947 66.44 159.043 66.16 160.259 66.16C161.475 66.16 162.555 66.44 163.499 67C164.459 67.544 165.203 68.312 165.731 69.304C166.275 70.296 166.547 71.432 166.547 72.712ZM160.259 68.104C159.155 68.104 158.227 68.44 157.475 69.112C156.739 69.784 156.307 70.664 156.179 71.752H164.339C164.211 70.68 163.771 69.808 163.019 69.136C162.283 68.448 161.363 68.104 160.259 68.104ZM180.768 66.28L174.6 80.272C174.056 81.568 173.416 82.48 172.68 83.008C171.96 83.536 171.088 83.8 170.064 83.8C169.44 83.8 168.832 83.696 168.24 83.488C167.664 83.296 167.184 83.008 166.8 82.624L167.784 80.896C168.44 81.52 169.2 81.832 170.064 81.832C170.624 81.832 171.088 81.68 171.456 81.376C171.84 81.088 172.184 80.584 172.488 79.864L172.896 78.976L167.28 66.28H169.68L174.12 76.456L178.512 66.28H180.768ZM187.152 66.16C188.912 66.16 190.256 66.592 191.184 67.456C192.128 68.32 192.6 69.608 192.6 71.32V79H190.416V77.32C190.032 77.912 189.48 78.368 188.76 78.688C188.056 78.992 187.216 79.144 186.24 79.144C184.816 79.144 183.672 78.8 182.808 78.112C181.96 77.424 181.536 76.52 181.536 75.4C181.536 74.28 181.944 73.384 182.76 72.712C183.576 72.024 184.872 71.68 186.648 71.68H190.296V71.224C190.296 70.232 190.008 69.472 189.432 68.944C188.856 68.416 188.008 68.152 186.888 68.152C186.136 68.152 185.4 68.28 184.68 68.536C183.96 68.776 183.352 69.104 182.856 69.52L181.896 67.792C182.552 67.264 183.336 66.864 184.248 66.592C185.16 66.304 186.128 66.16 187.152 66.16ZM186.624 77.368C187.504 77.368 188.264 77.176 188.904 76.792C189.544 76.392 190.008 75.832 190.296 75.112V73.336H186.744C184.792 73.336 183.816 73.992 183.816 75.304C183.816 75.944 184.064 76.448 184.56 76.816C185.056 77.184 185.744 77.368 186.624 77.368ZM199.072 68.416C199.472 67.68 200.064 67.12 200.848 66.736C201.632 66.352 202.584 66.16 203.704 66.16V68.392C203.576 68.376 203.4 68.368 203.176 68.368C201.928 68.368 200.944 68.744 200.224 69.496C199.52 70.232 199.168 71.288 199.168 72.664V79H196.864V66.28H199.072V68.416ZM218.426 61.192V79H216.218V76.984C215.706 77.688 215.058 78.224 214.274 78.592C213.49 78.96 212.626 79.144 211.682 79.144C210.45 79.144 209.346 78.872 208.37 78.328C207.394 77.784 206.626 77.024 206.066 76.048C205.522 75.056 205.25 73.92 205.25 72.64C205.25 71.36 205.522 70.232 206.066 69.256C206.626 68.28 207.394 67.52 208.37 66.976C209.346 66.432 210.45 66.16 211.682 66.16C212.594 66.16 213.434 66.336 214.202 66.688C214.97 67.024 215.61 67.528 216.122 68.2V61.192H218.426ZM211.874 77.128C212.674 77.128 213.402 76.944 214.058 76.576C214.714 76.192 215.226 75.664 215.594 74.992C215.962 74.304 216.146 73.52 216.146 72.64C216.146 71.76 215.962 70.984 215.594 70.312C215.226 69.624 214.714 69.096 214.058 68.728C213.402 68.36 212.674 68.176 211.874 68.176C211.058 68.176 210.322 68.36 209.666 68.728C209.026 69.096 208.514 69.624 208.13 70.312C207.762 70.984 207.578 71.76 207.578 72.64C207.578 73.52 207.762 74.304 208.13 74.992C208.514 75.664 209.026 76.192 209.666 76.576C210.322 76.944 211.058 77.128 211.874 77.128Z" fill="white"/>
<path d="M101.112 24.2L93.744 41H91.368L83.976 24.2H86.568L92.616 38L98.712 24.2H101.112ZM113.453 34.712C113.453 34.888 113.437 35.12 113.405 35.408H103.085C103.229 36.528 103.717 37.432 104.549 38.12C105.397 38.792 106.445 39.128 107.693 39.128C109.213 39.128 110.437 38.616 111.365 37.592L112.637 39.08C112.061 39.752 111.341 40.264 110.477 40.616C109.629 40.968 108.677 41.144 107.621 41.144C106.277 41.144 105.085 40.872 104.045 40.328C103.005 39.768 102.197 38.992 101.621 38C101.061 37.008 100.781 35.888 100.781 34.64C100.781 33.408 101.053 32.296 101.597 31.304C102.157 30.312 102.917 29.544 103.877 29C104.853 28.44 105.949 28.16 107.165 28.16C108.381 28.16 109.461 28.44 110.405 29C111.365 29.544 112.109 30.312 112.637 31.304C113.181 32.296 113.453 33.432 113.453 34.712ZM107.165 30.104C106.061 30.104 105.133 30.44 104.381 31.112C103.645 31.784 103.213 32.664 103.085 33.752H111.245C111.117 32.68 110.677 31.808 109.925 31.136C109.189 30.448 108.269 30.104 107.165 30.104ZM123.445 28.16C125.061 28.16 126.341 28.632 127.285 29.576C128.245 30.504 128.725 31.872 128.725 33.68V41H126.421V33.944C126.421 32.712 126.125 31.784 125.533 31.16C124.941 30.536 124.093 30.224 122.989 30.224C121.741 30.224 120.757 30.592 120.037 31.328C119.317 32.048 118.957 33.088 118.957 34.448V41H116.653V28.28H118.861V30.2C119.325 29.544 119.949 29.04 120.733 28.688C121.533 28.336 122.437 28.16 123.445 28.16ZM145.227 28.28V39.272C145.227 41.496 144.675 43.136 143.571 44.192C142.467 45.264 140.819 45.8 138.627 45.8C137.427 45.8 136.283 45.632 135.195 45.296C134.107 44.976 133.227 44.512 132.555 43.904L133.659 42.128C134.251 42.64 134.979 43.04 135.843 43.328C136.723 43.632 137.627 43.784 138.555 43.784C140.043 43.784 141.139 43.432 141.843 42.728C142.563 42.024 142.923 40.952 142.923 39.512V38.504C142.379 39.16 141.707 39.656 140.907 39.992C140.123 40.312 139.267 40.472 138.339 40.472C137.123 40.472 136.019 40.216 135.027 39.704C134.051 39.176 133.283 38.448 132.723 37.52C132.163 36.576 131.883 35.504 131.883 34.304C131.883 33.104 132.163 32.04 132.723 31.112C133.283 30.168 134.051 29.44 135.027 28.928C136.019 28.416 137.123 28.16 138.339 28.16C139.299 28.16 140.187 28.336 141.003 28.688C141.835 29.04 142.515 29.56 143.043 30.248V28.28H145.227ZM138.603 38.456C139.435 38.456 140.179 38.28 140.835 37.928C141.507 37.576 142.027 37.088 142.395 36.464C142.779 35.824 142.971 35.104 142.971 34.304C142.971 33.072 142.563 32.08 141.747 31.328C140.931 30.56 139.883 30.176 138.603 30.176C137.307 30.176 136.251 30.56 135.435 31.328C134.619 32.08 134.211 33.072 134.211 34.304C134.211 35.104 134.395 35.824 134.763 36.464C135.147 37.088 135.667 37.576 136.323 37.928C136.995 38.28 137.755 38.456 138.603 38.456ZM161.125 34.712C161.125 34.888 161.109 35.12 161.077 35.408H150.757C150.901 36.528 151.389 37.432 152.221 38.12C153.069 38.792 154.117 39.128 155.365 39.128C156.885 39.128 158.109 38.616 159.037 37.592L160.309 39.08C159.733 39.752 159.013 40.264 158.149 40.616C157.301 40.968 156.349 41.144 155.293 41.144C153.949 41.144 152.757 40.872 151.717 40.328C150.677 39.768 149.869 38.992 149.293 38C148.733 37.008 148.453 35.888 148.453 34.64C148.453 33.408 148.725 32.296 149.269 31.304C149.829 30.312 150.589 29.544 151.549 29C152.525 28.44 153.621 28.16 154.837 28.16C156.053 28.16 157.133 28.44 158.077 29C159.037 29.544 159.781 30.312 160.309 31.304C160.853 32.296 161.125 33.432 161.125 34.712ZM154.837 30.104C153.733 30.104 152.805 30.44 152.053 31.112C151.317 31.784 150.885 32.664 150.757 33.752H158.917C158.789 32.68 158.349 31.808 157.597 31.136C156.861 30.448 155.941 30.104 154.837 30.104ZM168.981 24.944C167.605 24.944 166.917 25.688 166.917 27.176V28.28H170.613V30.176H166.965V41H164.661V30.176H162.501V28.28H164.661V27.152C164.661 25.888 165.029 24.888 165.765 24.152C166.501 23.416 167.533 23.048 168.861 23.048C169.373 23.048 169.853 23.112 170.301 23.24C170.749 23.368 171.133 23.552 171.453 23.792L170.757 25.544C170.229 25.144 169.637 24.944 168.981 24.944ZM184.642 28.28V41H182.458V39.08C181.994 39.736 181.378 40.248 180.61 40.616C179.858 40.968 179.034 41.144 178.138 41.144C176.442 41.144 175.106 40.68 174.13 39.752C173.154 38.808 172.666 37.424 172.666 35.6V28.28H174.97V35.336C174.97 36.568 175.266 37.504 175.858 38.144C176.45 38.768 177.298 39.08 178.402 39.08C179.618 39.08 180.578 38.712 181.282 37.976C181.986 37.24 182.338 36.2 182.338 34.856V28.28H184.642ZM189.028 23.192H191.332V41H189.028V23.192Z" fill="white"/>
</svg>
