<svg width="177" height="45" viewBox="0 0 177 45" fill="none" xmlns="http://www.w3.org/2000/svg">
<path d="M34.3765 2.9241L23.9507 17.748L34.1941 17.8735L14.2098 42.3485L22.2004 22.6088L12.0564 22.5838L23.627 0C23.627 0 26.659 0.0810766 29.2671 0.786103C31.8683 1.48937 34.3765 2.9241 34.3765 2.9241Z" fill="#FAB759"/>
<path d="M36.6474 4.39744C37.5049 5.0161 38.3238 5.69689 39.1045 6.43928C41.2646 8.53427 42.922 10.9172 44.0767 13.5872C45.2318 16.2575 45.809 19.0613 45.809 21.9986C45.809 24.9359 45.2318 27.7344 44.0767 30.3944C42.922 33.0544 41.2646 35.432 39.1045 37.527C36.9233 39.6223 34.4425 41.2244 31.6623 42.3335C28.882 43.4426 25.9628 43.9973 22.9045 43.9973C20.8799 43.9973 18.9186 43.7543 17.0206 43.2681L22.6675 36.3238C22.7465 36.3248 22.8255 36.3254 22.9045 36.3254C25.6633 36.3254 28.171 35.6784 30.4271 34.3845C32.6835 33.0904 34.4852 31.36 35.8326 29.1928C37.1798 27.0259 37.8534 24.6277 37.8534 21.9986C37.8534 19.3489 37.1798 16.9404 35.8326 14.7735C34.8549 13.2012 33.6382 11.8586 32.1823 10.7461L36.6474 4.39744ZM20.5322 0.114136L15.7876 9.37501C15.6624 9.4419 15.538 9.51091 15.4141 9.58203C13.158 10.8759 11.3561 12.6066 10.0089 14.7735C8.66142 16.9404 7.98783 19.3489 7.98783 21.9986C7.98783 24.6277 8.66142 27.0259 10.0089 29.1928C11.244 31.1796 12.8615 32.7998 14.8611 34.0527L12.0332 41.3529C10.1082 40.3451 8.34265 39.0697 6.73672 37.527C4.55519 35.432 2.88732 33.0544 1.73228 30.3944C0.577519 27.7344 0 24.9359 0 21.9986C0 19.0613 0.577519 16.2575 1.73228 13.5872C2.88732 10.9172 4.55519 8.53427 6.73672 6.43928C8.91797 4.36465 11.3935 2.77279 14.163 1.6637C16.2074 0.844896 18.3306 0.328288 20.5322 0.114136Z" fill="#255174"/>
<path d="M78.0526 44.0202H70.2346V25.4688C70.2346 24.0175 69.6433 22.8186 68.5921 21.7459C67.5409 20.7363 66.227 20.2315 64.7816 20.2315C63.4676 20.2315 62.3508 20.6101 61.3653 21.3673C60.3798 22.1245 59.7885 23.071 59.4601 24.2699V44.0202H51.4449V12.5964H59.4601V15.3097C59.9199 14.6787 60.6426 14.1739 61.5624 13.7953C62.4822 13.3536 63.4019 13.1012 64.256 12.9119C65.1758 12.6595 65.7671 12.5964 66.1613 12.5964C69.709 12.5964 72.6654 13.8584 74.8334 16.3824C77.0015 18.8433 78.0526 21.8721 78.0526 25.4688V44.0202Z" fill="#255174"/>
<path d="M105.939 12.5964H97.7908V43.9924H105.939V12.5964Z" fill="#255174"/>
<path d="M101.862 8.34937C104.254 8.34937 106.193 6.48719 106.193 4.19007C106.193 1.89295 104.254 0.0307617 101.862 0.0307617C99.4704 0.0307617 97.5316 1.89295 97.5316 4.19007C97.5316 6.48719 99.4704 8.34937 101.862 8.34937Z" fill="#255174"/>
<path d="M83.7249 44.0216V41.4976C83.7249 28.6253 83.7249 15.7529 83.7249 2.88051V0.0410156H91.8715V2.88051C91.8715 15.7529 91.8715 28.6253 91.8715 41.4976V44.0216H83.7249Z" fill="#255174"/>
<path d="M138.443 44.0202H130.625V25.4688C130.625 24.0175 130.033 22.8186 128.982 21.7459C127.931 20.7363 126.617 20.2315 125.172 20.2315C123.858 20.2315 122.741 20.6101 121.755 21.3673C120.77 22.1245 120.179 23.071 119.85 24.2699V44.0202H111.835V12.5964H119.85V15.3097C120.31 14.6787 121.033 14.1739 121.952 13.7953C122.872 13.3536 123.792 13.1012 124.646 12.9119C125.566 12.6595 126.157 12.5964 126.551 12.5964C130.099 12.5964 133.055 13.8584 135.223 16.3824C137.392 18.8433 138.443 21.8721 138.443 25.4688V44.0202Z" fill="#255174"/>
<path fill-rule="evenodd" clip-rule="evenodd" d="M175.371 34.6392C172.854 40.1775 167.099 44.0523 160.41 44.0523C151.404 44.0523 144.093 37.0303 144.093 28.3815C144.093 19.7324 151.404 12.7106 160.41 12.7106C169.415 12.7106 176.725 19.7324 176.725 28.3815C176.725 29.3562 176.633 30.3104 176.455 31.2363H161.363H152.651C153.865 34.2125 156.883 36.3225 160.41 36.3225C162.334 36.3225 164.107 35.6941 165.518 34.6392H175.371ZM168.168 25.4108C166.954 22.4347 163.936 20.3246 160.41 20.3246C156.883 20.3246 153.865 22.4347 152.651 25.4108H168.168Z" fill="#255174"/>
</svg>
