<svg width="25" height="25" viewBox="0 0 25 25" fill="none" xmlns="http://www.w3.org/2000/svg">
    <g clip-path="url(#clip0_932_911)">
    <path d="M24.359 20.2826L4.76642 0.690058C3.91194 -0.164427 2.52661 -0.164427 1.67346 0.690058L0.640864 1.72105C-0.213621 2.5758 -0.213621 3.96113 0.640864 4.81428L20.2334 24.4068C21.0882 25.2613 22.4735 25.2613 23.3266 24.4068L24.3576 23.3758C25.2137 22.5227 25.2137 21.1371 24.359 20.2826Z" fill="#F44336"/>
    <path d="M20.2334 0.689858L0.640863 20.2824C-0.213621 21.1369 -0.213621 22.5225 0.640863 23.3756L1.67185 24.4066C2.5266 25.2611 3.91194 25.2611 4.76509 24.4066L24.3589 4.81542C25.2137 3.96093 25.2137 2.5756 24.3589 1.72245L23.328 0.69146C22.4735 -0.164627 21.0881 -0.164627 20.2334 0.689858Z" fill="#F44336"/>
    </g>
    <defs>
    <clipPath id="clip0_932_911">
    <rect width="25" height="25" fill="white"/>
    </clipPath>
    </defs>
    </svg>
    