<?xml version="1.0" encoding="UTF-8" standalone="no"?>
<svg
   xmlns:dc="http://purl.org/dc/elements/1.1/"
   xmlns:cc="http://creativecommons.org/ns#"
   xmlns:rdf="http://www.w3.org/1999/02/22-rdf-syntax-ns#"
   xmlns:svg="http://www.w3.org/2000/svg"
   xmlns="http://www.w3.org/2000/svg"
   xmlns:sodipodi="http://sodipodi.sourceforge.net/DTD/sodipodi-0.dtd"
   xmlns:inkscape="http://www.inkscape.org/namespaces/inkscape"
   width="74.861801mm"
   height="272.7562mm"
   viewBox="0 0 74.861801 272.7562"
   version="1.1"
   id="svg8"
   inkscape:version="1.0.1 (3bc2e813f5, 2020-09-07)"
   sodipodi:docname="vodka.svg">
  <defs
     id="defs2">
    <filter
       inkscape:collect="always"
       style="color-interpolation-filters:sRGB"
       id="filter890"
       x="-0.028317362"
       width="1.0566347"
       y="-0.0076130941"
       height="1.0152262">
      <feGaussianBlur
         inkscape:collect="always"
         stdDeviation="0.37775917"
         id="feGaussianBlur892" />
    </filter>
  </defs>
  <sodipodi:namedview
     id="base"
     pagecolor="#ffffff"
     bordercolor="#666666"
     borderopacity="1.0"
     inkscape:pageopacity="0.0"
     inkscape:pageshadow="2"
     inkscape:zoom="0.49497475"
     inkscape:cx="-561.31118"
     inkscape:cy="360.61665"
     inkscape:document-units="mm"
     inkscape:current-layer="layer1"
     inkscape:document-rotation="0"
     showgrid="false"
     inkscape:window-width="1920"
     inkscape:window-height="1063"
     inkscape:window-x="0"
     inkscape:window-y="17"
     inkscape:window-maximized="1" />
  <metadata
     id="metadata5">
    <rdf:RDF>
      <cc:Work
         rdf:about="">
        <dc:format>image/svg+xml</dc:format>
        <dc:type
           rdf:resource="http://purl.org/dc/dcmitype/StillImage" />
        <dc:title />
      </cc:Work>
    </rdf:RDF>
  </metadata>
  <g
     inkscape:label="Layer 1"
     inkscape:groupmode="layer"
     id="layer1"
     transform="translate(-62.037912,-12.308008)">
    <path
       style="opacity:0.5;fill:#0000ff;stroke:#000000;stroke-width:0.264583px;stroke-linecap:butt;stroke-linejoin:miter;stroke-opacity:1"
       d="m 84.794848,60.986373 c 0,0 14.898066,-3.582612 30.043812,-0.519983 l -1.15099,-23.783431 0.56229,-21.748608 c 0,0 -9.2107,-5.593112 -29.405396,-0.0279 l 0.844515,21.520033 z"
       id="path847"
       sodipodi:nodetypes="ccccccc" />
    <path
       style="opacity:0.5;fill:#0000ff;fill-opacity:0.572999;stroke:#000000;stroke-width:0.264583px;stroke-linecap:butt;stroke-linejoin:miter;stroke-opacity:1"
       d="m 114.47195,60.46639 c -0.34913,4.050478 2.76764,15.890587 2.76764,15.890587 l 0.15858,3.530292 -0.33594,11.585115 c -1.77847,12.716526 4.30197,14.658556 4.30197,14.658556 14.62462,8.00066 14.66712,19.65128 14.66712,19.65128 l -1.63168,133.27712 c 5.64404,18.40245 -0.57452,22.83531 -0.57452,22.83531 -28.70268,6.79579 -68.353112,0.0584 -68.353112,0.0584 -6.8355,-3.24872 -0.937079,-25.31443 -0.937079,-25.31443 L 63.65125,140.51143 c -1.576206,-12.68267 0.472354,-18.67529 0.472354,-18.67529 0.354126,-7.3752 16.199565,-17.64722 16.199565,-17.64722 4.934504,-0.87617 1.605219,-24.092878 1.605219,-24.092878 l 0.217478,-3.962885 c 2.105705,-5.928203 2.282275,-15.146784 2.282275,-15.146784 0,0 15.046407,-3.394071 30.043809,-0.519983 z"
       id="path849"
       sodipodi:nodetypes="ccccccccccccccccc" />
    <rect
       style="opacity:0.5;fill:#0000ff;fill-opacity:0.572999;stroke:none;stroke-width:0.264999;stroke-miterlimit:4;stroke-dasharray:none;stroke-dashoffset:0;stroke-opacity:1;filter:url(#filter890)"
       id="rect882"
       width="32.016472"
       height="119.0872"
       x="83.460571"
       y="135.00679" />
    <ellipse
       style="opacity:0.5;fill:#0000ff;fill-opacity:0.572999;stroke:#a9b503;stroke-width:2;stroke-miterlimit:4;stroke-dasharray:none;stroke-dashoffset:0;stroke-opacity:1"
       id="path884"
       cx="99.468811"
       cy="193.73674"
       rx="29.039755"
       ry="23.73358" />
    <rect
       style="opacity:0.5;fill:#000000;fill-opacity:0.798101;stroke:none;stroke-width:2.03326;stroke-miterlimit:4;stroke-dasharray:none;stroke-dashoffset:0;stroke-opacity:1"
       id="rect894"
       width="66.056046"
       height="119.61812"
       x="66.440788"
       y="134.49661" />
  </g>
</svg>
