<?xml version="1.0" encoding="UTF-8" standalone="no"?>
<!DOCTYPE svg PUBLIC "-//W3C//DTD SVG 1.1//EN" "http://www.w3.org/Graphics/SVG/1.1/DTD/svg11.dtd">
<svg width="100%" height="100%" viewBox="0 0 3508 2481" version="1.1" xmlns="http://www.w3.org/2000/svg" xmlns:xlink="http://www.w3.org/1999/xlink" xml:space="preserve" xmlns:serif="http://www.serif.com/" style="fill-rule:evenodd;clip-rule:evenodd;stroke-linejoin:round;stroke-miterlimit:2;">
    <g transform="matrix(1,0,0,1,-72.5612,176.081)">
        <g id="Wine-2---4" serif:id="Wine 2 + 4" transform="matrix(4.16667,0,0,4.16667,-1816.61,-881.714)">
            <g transform="matrix(1.32155,-0.0811478,0.0664892,1.08283,-367.548,-44.9703)">
                <path d="M805.469,424.518C808.667,426.577 811.067,381.304 795.946,380.529C782.839,379.857 777.81,392.193 782.913,392.557C786.048,392.78 800.559,383.301 802.589,398.503C804.93,416.033 802.714,422.745 805.469,424.518Z" style="fill:rgb(163,47,47);"/>
            </g>
            <g transform="matrix(1.84384,0.127508,-0.101377,1.46598,-674.265,-348.368)">
                <path d="M772.893,386.43C772.028,383.951 754.116,391.895 755.4,402.617C756.102,408.474 762.308,405.953 761.56,401.142C760.678,395.472 766.441,390.561 772.893,386.43Z" style="fill:rgb(163,47,47);"/>
            </g>
            <path d="M615.834,389.681C604.234,416.68 677.986,390.436 701.925,363.258C715.989,347.292 726.703,325.074 713.86,314.123C710.951,311.643 705.206,313.128 702.185,312.984C694.914,312.638 716.22,302.002 717.477,303.645C727.645,316.933 738.337,337.433 717.55,367.875C702.228,390.313 679.081,456.33 609.835,473.133C594.341,476.892 600.088,427.922 615.834,389.681Z" style="fill:rgb(163,47,47);"/>
        </g>
        <g id="Logo-2" serif:id="Logo 2" transform="matrix(4.16667,0,0,4.16667,-1816.61,-881.714)">
            <path d="M609.121,476.673C607.777,476.641 606.433,476.476 605.089,476.177C597.063,474.672 593.049,467.566 593.049,454.857C593.049,434.29 603.417,399.258 624.151,349.763C632.178,331.035 638.114,312.808 641.96,295.083C643.465,288.228 644.217,282.751 644.217,278.655C644.217,274.558 644.05,271.339 643.716,268.998C642.88,261.641 640.12,256.54 635.438,253.698C627.078,249.183 617.714,246.926 607.346,246.926C596.477,246.926 585.023,249.601 572.984,254.952C560.944,260.303 549.615,266.824 538.997,274.516C528.379,282.208 518.722,291.363 510.027,301.981C501.332,312.599 494.852,323.719 490.589,335.34C486.325,346.962 484.193,357.455 484.193,366.819C484.193,370.665 484.527,374.343 485.196,377.855C487.871,389.393 492.888,398.004 500.245,403.69C507.603,409.375 516.298,412.218 526.331,412.218C540.377,412.218 553.545,406.031 565.835,393.657C578.126,381.283 584.271,368.156 584.271,354.278C584.271,346.753 582.766,341.318 579.756,337.974C576.746,334.63 573.653,332.958 570.475,332.958C567.298,332.958 564.121,333.418 560.944,334.337C557.767,335.257 556.179,335.173 556.179,334.086C556.179,332.999 558.102,331.578 561.947,329.822C565.793,328.067 569.807,327.189 573.987,327.189C578.167,327.189 582.013,328.443 585.525,330.951C592.046,335.968 595.307,343.576 595.307,353.776C595.307,363.976 591.419,374.218 583.644,384.502C575.868,394.785 566.295,403.063 554.924,409.333C543.554,415.604 532.309,418.739 521.189,418.739C510.069,418.739 499.744,414.684 490.212,406.574C480.681,398.464 474.327,387.553 471.15,373.842C470.314,369.829 469.896,365.565 469.896,361.05C469.896,350.515 472.488,339.061 477.671,326.687C482.855,314.313 490.338,302.817 500.12,292.199C509.902,281.581 520.478,272.718 531.849,265.612C543.219,258.505 555.259,252.611 567.967,247.929C580.676,243.08 592.631,240.655 603.835,240.655C615.038,240.655 625.238,242.411 634.435,245.922C650.655,252.945 658.765,267.827 658.765,290.569C658.765,307.29 652.745,328.025 640.706,352.773C633.181,368.156 626.492,384.711 620.64,402.435C611.945,428.688 607.597,446.915 607.597,457.115C607.597,464.807 610.189,468.653 615.373,468.653C625.74,468.653 643.883,455.192 669.801,428.27C688.028,409.375 702.324,388.64 712.692,366.066C719.38,351.686 722.725,338.476 722.725,326.436C722.725,320.082 722.223,315.609 721.22,313.017C720.216,310.425 719.548,308.753 719.213,308.001C718.879,307.248 718.21,306.58 717.207,305.994C716.203,305.409 715.534,305.116 715.2,305.116C712.859,304.448 710.434,303.904 707.926,303.486C705.418,303.068 703.955,301.939 703.537,300.1C703.119,298.261 703.997,297.174 706.17,296.839L710.936,297.341C718.628,299.515 725.316,304.949 731.002,313.644C734.179,318.494 735.767,324.304 735.767,331.077C735.767,337.849 734.179,345.833 731.002,355.03C723.31,375.43 711.438,395.538 695.385,415.353C679.332,435.168 663.489,450.343 647.854,460.877C640.351,465.933 633.512,469.775 627.336,472.405C627.277,472.444 627.214,472.48 627.149,472.513C623.537,474.842 615.483,479.608 607.255,490.406C603.822,494.911 600.601,500.536 597.309,507.426C594.761,512.761 592.099,518.802 589.92,525.92C578.73,556.927 581.593,588.114 595.304,613.868C600.347,623.34 606.701,632.191 614.576,639.787C617.898,642.992 621.49,645.977 625.348,648.648C637.54,657.09 652.007,662.792 667.825,666.088C669.046,666.406 670.015,667.206 670.58,668.232C671.83,668.247 673.107,668.276 674.408,668.315C684.527,668.62 696.043,669.599 706.72,671.352C722.83,673.997 736.955,678.442 742.312,683.237C743.585,684.447 743.979,686.317 743.304,687.938C742.628,689.559 741.023,690.595 739.267,690.543C723.898,690.184 709.561,690.475 695.877,690.839C672.812,691.452 651.599,692.663 630.499,693.151C614.982,693.509 599.54,693.341 583.485,692.399C581.989,692.343 580.76,691.202 580.592,689.715C580.425,688.228 581.37,686.842 582.815,686.455L652.192,669.599C641.433,664.864 631.696,658.846 622.879,652.018C619.036,649.042 615.331,645.969 611.8,642.746C603.346,635.027 595.921,626.469 589.973,616.948C573.147,590.015 567.663,556.454 577.276,521.886C579.37,515.44 581.562,509.671 584.189,504.709C587.471,498.511 591.127,493.465 594.811,489.286C599.755,483.677 604.665,479.637 609.121,476.673ZM1150.65,570.918C1151.27,569.125 1151.97,567.298 1152.76,565.436C1156.52,556.49 1161.83,547.92 1168.68,539.727C1175.54,531.533 1183.82,526.015 1193.52,523.173C1197.03,522.002 1201.17,521.417 1205.93,521.417C1210.7,521.417 1216.01,522.922 1221.86,525.932C1233.23,504.528 1242.93,484.713 1250.95,466.487C1253.3,460.969 1255.59,457.415 1257.85,455.827C1260.11,454.238 1262.2,453.444 1264.12,453.444L1267.63,453.444C1268.05,453.444 1269.64,453.653 1272.4,454.071C1275.16,454.489 1277.29,454.614 1278.8,454.447C1274.95,457.959 1264.75,475.015 1248.19,505.615C1227.13,544.743 1214.42,570.829 1210.07,583.872C1208.4,588.721 1207.56,592.734 1207.56,595.911C1207.56,601.262 1209.74,603.937 1214.08,603.937C1221.94,603.937 1232.39,590.811 1245.44,564.558C1245.94,563.555 1246.4,562.552 1246.82,561.548C1247.23,560.545 1247.9,559.876 1248.82,559.542C1249.74,559.207 1250.37,559.416 1250.7,560.169C1251.04,560.921 1250.87,562.134 1250.2,563.806C1236.82,594.908 1223.28,610.459 1209.57,610.459C1205.05,610.459 1201.46,608.452 1198.78,604.439C1196.11,600.426 1194.77,596.454 1194.77,592.525C1194.77,588.595 1195.19,584.958 1196.02,581.614C1186.33,597.667 1177.96,606.78 1170.94,608.954C1168.93,609.79 1166.97,610.208 1165.05,610.208C1163.12,610.208 1161.24,609.957 1159.4,609.455C1151.21,607.282 1147.11,600.76 1147.11,589.891C1147.11,588.476 1147.18,587.032 1147.32,585.558C1144.85,589.598 1141.44,594.136 1137.08,599.172C1130.73,606.864 1124.62,610.71 1118.77,610.71C1112.25,610.71 1107.73,606.78 1105.23,598.921C1104.73,597.416 1104.47,595.159 1104.47,592.149C1104.47,589.139 1105.43,585.126 1107.36,580.109C1109.28,575.093 1112.33,568.989 1116.51,561.799C1120.69,554.609 1123.04,550.387 1123.54,549.133C1124.04,547.879 1124.29,546.666 1124.29,545.496C1124.29,540.312 1117.6,537.553 1104.22,537.219L1101.21,545.245C1090.68,572.835 1080.56,591.313 1070.86,600.677C1070.49,601.012 1070.16,601.247 1069.87,601.383C1064.1,607.768 1058.83,610.96 1054.06,610.96C1049.21,610.96 1045.28,608.619 1042.27,603.937C1040.77,601.429 1040.01,598.085 1040.01,593.904C1040.01,589.724 1040.85,584.624 1042.52,578.604C1029.14,600.175 1017.61,610.96 1007.91,610.96C1005.23,610.96 1002.81,610.124 1000.63,608.452C995.617,604.941 993.109,598.921 993.109,590.393C993.109,589.506 993.129,588.619 993.171,587.733C990.392,592.269 986.86,596.918 982.574,601.68C978.059,606.696 973.043,610.668 967.525,613.594C962.007,616.52 954.649,619.656 945.452,623C932.577,646.41 919.618,663.633 906.575,674.669C894.368,684.702 881.158,689.719 866.945,689.719C859.587,689.719 853.902,688.172 849.889,685.078C845.876,681.985 843.869,678.264 843.869,673.917C843.869,669.569 845.123,664.636 847.632,659.118C851.979,650.59 859.838,643.734 871.209,638.551C879.737,634.538 891.024,630.817 905.07,627.389C919.116,623.961 928.146,621.662 932.159,620.492C938.178,609.957 945.369,591.145 953.729,564.057C944.031,581.112 935.921,593.068 929.4,599.924C922.878,606.78 916.273,610.208 909.585,610.208C900.555,610.208 895.288,606.446 893.783,598.921C893.114,597.75 892.947,595.995 893.281,593.654C893.616,591.313 893.825,589.64 893.908,588.637C893.986,587.701 894.465,586.219 895.343,584.191C893.247,587.9 891.139,591.137 889.017,593.904C880.489,605.609 869.955,611.462 857.414,611.462C850.725,611.462 845.04,609.288 840.358,604.941C835.676,600.593 833.335,594.657 833.335,587.132C833.335,585.734 833.397,584.32 833.521,582.89C828.815,591.066 824.614,597.204 820.919,601.304C814.816,608.076 808.712,611.462 802.609,611.462C796.506,611.462 791.865,609.121 788.688,604.439C787.016,602.265 786.18,599.297 786.18,595.535C786.18,591.772 787.016,587.216 788.688,581.865C790.36,576.514 794.959,567.819 802.484,555.779C804.323,552.77 805.243,550.387 805.243,548.631C805.243,546.875 803.821,545.997 800.979,545.997C798.136,545.997 792.701,549.76 784.675,557.284C772.636,568.321 761.014,584.875 749.811,606.947C748.808,608.619 747.679,609.664 746.425,610.082C745.171,610.5 742.704,610.793 739.025,610.96C735.347,611.128 732.922,611.546 731.752,612.214C733.019,609.68 734.868,605.888 737.298,600.839C731.171,607.252 725.351,610.459 719.838,610.459C713.734,610.459 709.345,608.619 706.669,604.941C703.994,601.262 702.656,597.165 702.656,592.65C702.656,588.135 703.743,583.203 705.917,577.852L721.97,536.968C722.304,535.964 722.471,534.627 722.471,532.955C722.471,531.282 721.468,529.109 719.461,526.433L733.257,526.182C737.103,526.182 739.36,526.893 740.029,528.314C740.698,529.736 740.196,531.951 738.524,534.961L718.458,581.865C715.615,588.052 714.194,593.319 714.194,597.667C714.194,602.516 716.786,604.941 721.97,604.941C725.147,604.941 728.491,603.352 732.002,600.175C738.189,593.988 746.049,581.363 755.58,562.301C756.052,561.289 756.524,560.563 756.997,560.122C765.812,542.659 771.861,532.349 775.144,529.192C777.15,527.186 779.91,526.182 783.421,526.182C784.09,526.182 785.804,526.433 788.563,526.935C791.322,527.436 793.37,527.52 794.708,527.186C788.521,530.53 778.405,546.248 764.359,574.34C772.218,564.642 779.366,556.908 785.804,551.139C792.242,545.37 799.975,540.019 809.005,535.087C818.035,530.154 824.64,527.687 828.82,527.687C829.823,527.687 830.743,527.855 831.579,528.189C811.012,564.307 800.728,587.885 800.728,598.921C800.728,603.268 802.316,605.442 805.493,605.442C813.427,605.442 823.893,592.924 836.892,567.887C837.44,566.334 838.052,564.765 838.727,563.179C842.323,554.734 847.214,546.875 853.4,539.601C859.587,532.328 866.694,527.018 874.72,523.674C878.566,522.002 882.245,521.166 885.757,521.166C889.268,521.166 892.529,522.169 895.539,524.176C898.381,526.517 899.803,529.109 899.803,531.951C899.803,541.984 893.783,551.599 881.743,560.796C878.065,563.639 872.881,566.189 866.192,568.446C859.504,570.703 854.404,571.832 850.892,571.832C848.551,577.517 847.381,583.872 847.381,590.895C847.381,595.577 848.426,599.297 850.516,602.056C852.606,604.815 855.574,606.195 859.42,606.195C874.637,606.195 888.432,591.898 900.806,563.304C901.427,561.886 902.118,560.89 902.879,560.318L904.568,557.034C910.254,546.165 914.936,536.968 918.614,529.443C920.286,525.932 923.547,524.176 928.396,524.176L943.697,524.176C943.362,524.51 942.526,525.179 941.188,526.182C938.178,528.189 935.921,530.53 934.416,533.205C928.396,543.573 920.872,558.371 911.842,577.601C908.163,585.46 906.324,591.229 906.324,594.908C906.324,598.586 906.951,601.178 908.205,602.683C909.459,604.188 911.173,604.941 913.347,604.941C916.524,604.941 920.955,601.596 926.641,594.908C938.513,581.029 951.639,559.207 966.02,529.443C967.859,525.932 971.12,524.176 975.802,524.176L989.346,524.176C984.999,527.186 981.571,530.99 979.063,535.588C976.554,540.187 973.837,546.415 970.911,554.274C967.985,562.134 964.306,572.585 959.875,585.627C955.443,598.67 952.057,608.452 949.716,614.973C965.434,610.291 977.474,602.014 985.835,590.142C988.298,586.671 991.474,581.399 995.364,574.326C998.482,563.158 1004.84,551.876 1014.43,540.479C1022.46,531.115 1032.32,525.012 1044.03,522.169C1047.2,521.333 1050.21,520.915 1053.06,520.915C1060.75,520.915 1067.27,523.591 1072.62,528.941C1074.29,530.781 1074.79,532.537 1074.12,534.209C1073.45,535.881 1072.03,536.55 1069.86,536.215C1068.02,530.196 1064.01,527.186 1057.82,527.186C1050.63,527.186 1041.77,532.871 1031.23,544.242C1025.21,550.93 1019.61,558.789 1014.43,567.819C1007.91,578.688 1004.65,587.383 1004.65,593.904C1004.65,600.426 1006.74,603.686 1010.92,603.686C1020.95,603.686 1034.08,588.303 1050.3,557.535C1053.47,551.348 1056.15,547.126 1058.32,544.869C1060.5,542.611 1063.26,541.483 1066.6,541.483C1067.27,541.483 1068.98,541.733 1071.74,542.235C1074.5,542.737 1076.55,542.82 1077.89,542.486C1074.88,545.496 1070.61,552.31 1065.1,562.928C1059.58,573.546 1056.27,581.489 1055.19,586.756C1054.1,592.023 1053.56,596.287 1053.56,599.548C1053.56,602.809 1054.81,604.439 1057.32,604.439C1060.5,604.439 1064.43,601.513 1069.11,595.66C1075.93,587.173 1082.67,576.119 1089.33,562.496C1090.66,559.578 1091.94,556.587 1093.19,553.522C1100.04,536.633 1104.81,520.581 1107.48,505.364C1108.49,500.18 1110.83,497.589 1114.51,497.589C1118.18,497.589 1120.86,499.93 1122.53,504.612C1123.04,506.117 1123.29,507.872 1123.29,509.879C1123.29,517.404 1118.52,524.51 1108.99,531.199C1112.33,531.366 1116.81,531.45 1122.41,531.45C1128.01,531.45 1135.07,531.032 1143.6,530.196C1143.94,530.697 1144.1,532.035 1144.1,534.209C1144.1,536.382 1143.1,539.601 1141.09,543.865C1139.09,548.129 1137.29,551.808 1135.7,554.902C1134.11,557.995 1132.61,560.921 1131.19,563.68C1129.77,566.439 1128.18,569.825 1126.42,573.839C1124.66,577.852 1123.2,581.531 1122.03,584.875C1117.85,597.583 1118.52,603.937 1124.04,603.937C1130.27,603.937 1139.15,592.93 1150.65,570.918ZM670.42,672.763C669.413,674.316 667.49,675.127 665.601,674.635C663.786,674.067 661.998,673.462 660.235,672.823C657.687,672.979 655.407,673.254 653.469,673.66C646.677,675.268 636.361,677.92 625.771,680.775C619.009,682.598 612.133,684.492 605.978,686.206L605.977,686.206C620.338,685.8 634.433,684.881 648.828,684.012C662.937,683.16 677.329,682.352 692.501,681.902C701.682,681.63 711.148,681.532 721.01,681.64C714.01,679.335 705.542,677.315 696.897,675.765C687.805,674.134 678.511,673.074 670.42,672.763ZM852.397,664.887C850.558,668.566 849.638,671.952 849.638,675.045C849.638,678.139 850.809,680.522 853.15,682.194C855.491,683.866 858.417,684.702 861.928,684.702C871.627,684.702 881.994,679.727 893.03,669.778C904.067,659.829 913.765,649.169 922.126,637.798L927.644,628.518C900.053,635.708 882.663,640.892 875.473,644.069C864.771,648.751 857.079,655.69 852.397,664.887ZM713.191,522.922L711.937,527.436C703.409,554.024 695.55,573.421 688.359,585.627C677.825,603.352 666.789,612.214 655.251,612.214C645.887,612.214 641.205,607.7 641.205,598.67C641.205,591.814 643.713,581.196 648.729,566.816C647.057,569.491 645.761,570.369 644.842,569.449C643.922,568.53 643.713,567.401 644.215,566.063L648.729,557.535C651.907,551.014 653.495,544.492 653.495,537.971C653.495,531.45 652.157,527.604 649.482,526.433C659.515,524.761 665.367,523.967 667.039,524.05C668.712,524.134 669.757,524.845 670.175,526.182C670.593,527.52 670.802,529.025 670.802,530.697C670.802,540.897 668.168,552.937 662.901,566.816C657.634,580.694 655,590.017 655,594.782C655,599.548 655.752,602.307 657.257,603.059C658.762,603.812 660.267,604.188 661.772,604.188C666.12,604.188 671.053,600.677 676.571,593.654C682.089,586.631 687.607,576.263 693.125,562.552C690.784,557.201 689.613,552.477 689.613,548.38C689.613,544.283 690.115,540.646 691.118,537.469C694.128,527.938 698.894,522.002 705.415,519.661C706.753,519.159 708.007,518.909 709.178,518.909C711.853,518.909 713.191,520.246 713.191,522.922ZM1219.85,529.945C1217.68,527.771 1214.63,526.684 1210.7,526.684C1206.77,526.684 1201.29,529.61 1194.27,535.463C1183.07,544.827 1173.78,556.365 1166.43,570.076C1161.58,579.106 1159.15,586.547 1159.15,592.399C1159.15,595.075 1159.7,597.5 1160.78,599.673C1161.87,601.847 1163.58,602.934 1165.92,602.934C1171.61,602.934 1178.63,597.081 1186.99,585.376C1195.36,573.671 1206.31,555.194 1219.85,529.945ZM893.03,531.7C893.03,528.356 891.693,526.684 889.017,526.684C884.335,526.684 877.229,532.453 867.697,543.991C862.012,551.014 856.996,558.873 852.648,567.568C855.491,567.568 859.629,566.565 865.064,564.558C870.498,562.552 875.222,559.876 879.235,556.532C888.432,548.673 893.03,540.396 893.03,531.7ZM1176,390.391C1179.84,376.546 1185.31,361.456 1192.39,345.12C1199.5,328.733 1205.52,316.401 1210.45,308.124C1215.38,299.847 1219.27,294.203 1222.11,291.193C1227.8,285.173 1233.4,282.164 1238.92,282.164C1242.76,282.164 1245.36,284.923 1246.69,290.441C1246.86,291.444 1246.94,292.698 1246.94,294.203C1246.94,299.888 1244.94,307.079 1240.92,315.774C1226.54,347.712 1209.4,372.794 1189.51,391.021C1189.34,391.689 1188.59,393.989 1187.25,397.918C1185.91,401.848 1184.78,405.61 1183.86,409.205C1182.94,412.8 1182.48,416.395 1182.48,419.99C1182.48,423.586 1183.32,426.93 1184.99,430.023C1186.66,433.117 1189.34,434.664 1193.02,434.664C1199.04,434.664 1204.89,430.609 1210.57,422.499C1216.26,414.389 1222.28,404.063 1228.63,391.522C1229.97,389.181 1231.23,388.261 1232.4,388.763C1233.23,389.432 1233.4,390.31 1232.9,391.397C1232.4,392.484 1231.35,394.825 1229.76,398.42C1228.17,402.015 1227,404.523 1226.25,405.944C1225.5,407.366 1224.16,409.874 1222.24,413.469C1220.31,417.064 1218.64,419.74 1217.22,421.495C1215.8,423.251 1213.88,425.509 1211.45,428.268C1209.03,431.027 1206.73,433.075 1204.55,434.413C1198.7,438.091 1193.18,439.931 1188,439.931C1182.82,439.931 1178.8,438.802 1175.96,436.545C1173.12,434.287 1171.4,431.863 1170.82,429.271C1170.23,426.679 1169.94,424.38 1169.94,422.373C1169.94,420.367 1170.03,417.775 1170.19,414.598C1170.33,413.086 1170.52,411.588 1170.75,410.103C1169.69,411.988 1168.46,414.113 1167.06,416.479C1164.13,421.412 1161.41,425.3 1158.9,428.142C1152.38,435.5 1145.99,439.178 1139.72,439.178C1133.45,439.178 1129.14,436.419 1126.8,430.901C1125.8,428.393 1125.3,425.216 1125.3,421.37C1125.3,417.524 1126.13,412.758 1127.8,407.073C1115.6,428.477 1104.31,439.178 1093.94,439.178C1084.91,439.178 1079.64,435.416 1078.14,427.891C1077.64,427.055 1077.39,426.052 1077.39,424.882C1077.39,421.448 1078.09,417.672 1079.5,413.553C1069.3,430.971 1059.23,439.68 1049.3,439.68C1049.46,442.355 1049.55,446.745 1049.55,452.848C1049.55,458.952 1048.04,468.023 1045.03,480.062C1042.02,492.102 1036.96,502.887 1029.86,512.419C1022.75,521.95 1015.1,526.715 1006.91,526.715C997.71,526.715 993.111,522.117 993.111,512.92C993.111,499.71 1001.72,472.789 1018.95,432.155C1018.5,431.415 1018.11,430.704 1017.76,430.021C1010.49,436.962 1002.02,440.433 992.359,440.433C985.67,440.433 979.985,438.259 975.303,433.911C970.621,429.564 968.28,423.627 968.28,416.103C968.28,414.923 968.324,413.732 968.412,412.529C965.25,418.214 962.404,422.792 959.877,426.261C954.944,433.033 948.214,438.426 939.686,442.439C935.673,453.81 929.862,465.097 922.254,476.3C914.646,487.504 905.073,497.369 893.535,505.897C881.997,514.425 870.543,518.689 859.172,518.689C843.454,518.689 835.595,512.251 835.595,499.376C835.595,488.674 842.869,479.059 857.416,470.531C869.79,463.341 885.592,456.569 904.822,450.215C913.684,447.372 920.122,445.115 924.135,443.442C928.483,430.734 930.656,416.855 930.656,401.806C930.656,398.796 930.489,396.539 930.155,395.034C925.473,404.565 919.035,414.347 910.841,424.38C901.143,436.419 891.528,441.101 881.997,438.426C873.302,434.747 868.954,427.557 868.954,416.855C868.954,415.814 868.992,414.765 869.067,413.709C864.795,420.967 860.953,426.489 857.542,430.274C851.438,437.046 845.335,440.433 839.232,440.433C833.128,440.433 828.488,438.091 825.311,433.409C823.639,431.236 822.803,428.268 822.803,424.505C822.803,420.743 823.639,416.186 825.311,410.835C826.983,405.485 831.582,396.789 839.106,384.75C840.946,381.74 841.865,379.357 841.865,377.602C841.865,375.846 840.444,374.968 837.601,374.968C834.759,374.968 829.324,378.73 821.298,386.255C809.258,397.291 797.637,413.845 786.434,435.918C785.43,437.59 784.302,438.635 783.047,439.053C781.793,439.471 779.327,439.764 775.648,439.931C771.969,440.098 769.545,440.516 768.374,441.185C769.64,438.653 771.486,434.868 773.912,429.828C766.59,436.897 758.055,440.433 748.309,440.433C741.62,440.433 735.935,438.259 731.253,433.911C726.571,429.564 724.23,423.627 724.23,416.103C724.23,408.578 726.027,400.594 729.622,392.149C733.217,383.705 738.108,375.846 744.295,368.572C750.482,361.298 757.589,355.989 765.615,352.645C769.461,350.973 773.14,350.136 776.651,350.136C780.163,350.136 783.424,351.14 786.434,353.146C789.276,355.487 790.697,358.079 790.697,360.922C790.697,370.955 784.678,380.57 772.638,389.766C768.96,392.609 763.776,395.159 757.087,397.416C750.399,399.674 745.299,400.803 741.787,400.803C739.446,406.488 738.276,412.842 738.276,419.865C738.276,424.547 739.321,428.268 741.411,431.027C743.501,433.786 746.469,435.165 750.315,435.165C765.532,435.165 779.327,420.868 791.701,392.275C792.195,391.145 792.734,390.283 793.318,389.69C802.296,371.865 808.446,361.356 811.767,358.163C813.773,356.156 816.532,355.153 820.044,355.153C820.713,355.153 822.427,355.404 825.186,355.905C827.945,356.407 829.993,356.491 831.331,356.156C825.144,359.5 815.027,375.219 800.981,403.311C808.84,393.612 815.989,385.879 822.427,380.11C828.864,374.341 836.598,368.99 845.628,364.057C854.657,359.124 861.262,356.658 865.443,356.658C866.446,356.658 867.366,356.825 868.202,357.159C847.634,393.278 837.35,416.855 837.35,427.891C837.35,432.239 838.939,434.413 842.116,434.413C849.808,434.413 859.881,422.645 872.334,399.11C875.772,389.743 881.836,379.856 890.525,369.45C898.384,360.086 907.581,354.15 918.115,351.641C920.958,350.805 923.801,350.387 926.643,350.387C934.168,350.387 941.525,352.895 948.716,357.912C951.391,360.086 952.729,361.925 952.729,363.43C952.729,364.935 952.227,366.398 951.224,367.819C950.221,369.241 949.175,369.408 948.089,368.321C947.002,367.234 946.291,366.189 945.957,365.186C943.783,358.999 940.271,355.905 935.422,355.905C926.56,355.905 916.61,362.092 905.574,374.466C899.387,381.489 894.036,389.014 889.522,397.04C884.003,407.073 881.244,414.807 881.244,420.241C881.244,425.676 882.917,429.313 886.261,431.152C887.431,431.654 888.602,431.905 889.772,431.905C893.618,431.905 898.426,429.271 904.195,424.004C909.964,418.736 915.314,412.048 920.247,403.938C925.18,395.828 928.315,389.516 929.653,385.001C930.991,380.486 932.621,377.643 934.544,376.473C936.467,375.302 938.599,374.633 940.94,374.466C943.281,374.299 944.87,373.881 945.706,373.212C947.043,380.737 947.712,389.557 947.712,399.674C947.712,409.79 945.957,421.286 942.445,434.162C950.137,428.644 955.613,423.711 958.874,419.363C962.135,415.016 964.726,411.086 966.649,407.575C968.456,404.275 970.079,401.012 971.517,397.786C972.144,395.931 972.862,394.052 973.672,392.149C977.268,383.705 982.159,375.846 988.346,368.572C994.532,361.298 1001.64,355.989 1009.67,352.645C1013.51,350.973 1017.19,350.136 1020.7,350.136C1024.21,350.136 1027.47,351.14 1030.48,353.146C1033.33,355.487 1034.75,358.079 1034.75,360.922C1034.75,370.955 1028.73,380.57 1016.69,389.766C1013.01,392.609 1007.83,395.159 1001.14,397.416C994.449,399.674 989.349,400.803 985.837,400.803C983.496,406.488 982.326,412.842 982.326,419.865C982.326,424.547 983.371,428.268 985.461,431.027C987.551,433.786 990.519,435.165 994.365,435.165C1001.92,435.165 1009.12,431.644 1015.97,424.601C1015.95,424.353 1015.94,424.112 1015.94,423.878C1015.94,416.855 1017.52,412.173 1020.7,409.832C1023.04,407.826 1025.01,406.822 1026.6,406.822C1027.41,406.822 1028.09,406.845 1028.62,406.889C1031.05,402.526 1033.42,397.653 1035.75,392.275C1036.32,390.98 1036.94,390.038 1037.63,389.448C1053.56,354.245 1068.06,324.419 1081.15,299.972C1084.16,293.952 1087.25,289.521 1090.43,286.678C1093.61,283.836 1097.62,282.414 1102.47,282.414C1103.14,282.414 1104.81,282.665 1107.49,283.167C1110.16,283.669 1112.17,283.836 1113.51,283.669C1105.65,291.026 1094.61,307.246 1080.4,332.328C1066.18,357.41 1052.72,384.248 1040.02,412.842C1043.86,417.524 1046.54,423.795 1048.04,431.654L1048.79,434.914L1049.55,434.914C1054.06,434.914 1058.83,432.281 1063.84,427.014C1068.86,421.746 1072.96,416.312 1076.13,410.71C1079.31,405.108 1081.9,400.176 1083.91,395.912C1084.01,395.689 1084.12,395.473 1084.22,395.261C1084.27,395.106 1084.34,394.947 1084.41,394.783L1084.98,393.668C1085.56,392.484 1086.06,391.524 1086.46,390.788L1088.92,386.004C1094.61,375.135 1099.29,365.938 1102.97,358.414C1104.64,354.902 1107.9,353.146 1112.75,353.146L1128.05,353.146C1122.03,357.494 1115.97,365.896 1109.87,378.354C1103.77,390.811 1099.04,400.594 1095.7,407.7C1092.35,414.807 1090.68,420.2 1090.68,423.878C1090.68,427.557 1091.31,430.149 1092.56,431.654C1093.82,433.159 1095.53,433.911 1097.7,433.911C1100.88,433.911 1105.31,430.567 1111,423.878C1119.86,413.511 1132.32,391.689 1148.37,358.414C1150.21,354.902 1153.47,353.146 1158.15,353.146L1171.7,353.146C1168.02,355.989 1165.13,358.915 1163.04,361.925C1160.95,364.935 1158.07,370.286 1154.39,377.978C1144.36,398.044 1138.76,411.337 1137.59,417.858C1137.08,420.2 1136.83,422.373 1136.83,424.38C1136.83,429.731 1138.67,432.573 1142.35,432.908C1151.38,432.908 1162.5,418.945 1175.71,391.021C1175.81,390.798 1175.9,390.588 1176,390.391ZM1006.66,512.92C1006.66,517.769 1007.99,520.194 1010.67,520.194C1013.85,520.194 1018.24,516.473 1023.84,509.032C1029.44,501.591 1034.2,491.391 1038.13,478.432C1042.06,465.473 1044.03,453.726 1044.03,443.192L1044.03,440.683C1043.19,440.683 1042.44,440.683 1041.77,440.683C1036.92,440.683 1032.83,439.346 1029.48,436.67C1014.26,475.13 1006.66,500.546 1006.66,512.92ZM746.55,512.889C744.209,514.895 741.617,515.899 738.775,515.899C735.932,515.899 733.675,514.895 732.002,512.889C730.33,510.882 729.661,508.458 729.996,505.615C730.498,502.772 731.919,500.348 734.26,498.341C736.601,496.335 739.193,495.331 742.035,495.331C744.878,495.331 747.177,496.335 748.933,498.341C750.689,500.348 751.316,502.772 750.814,505.615C750.312,508.458 748.891,510.882 746.55,512.889ZM840.862,504.141C840.862,510.496 844.959,513.673 853.152,513.673C858.002,513.673 863.478,512.251 869.581,509.409C875.684,506.566 880.743,503.64 884.756,500.63C891.612,495.112 899.136,486.918 907.33,476.049C913.517,467.354 918.282,458.91 921.627,450.716L912.848,453.726C886.762,462.756 868.369,470.782 857.667,477.805C849.808,482.989 844.624,489.594 842.116,497.62C841.28,500.128 840.862,502.302 840.862,504.141ZM1042.02,435.918L1043.53,435.918C1043.03,428.727 1041.02,422.959 1037.51,418.611L1031.99,431.152C1033.66,434.329 1037.01,435.918 1042.02,435.918ZM783.925,360.671C783.925,357.327 782.588,355.655 779.912,355.655C775.23,355.655 768.123,361.423 758.592,372.961C752.907,379.984 747.89,387.843 743.543,396.539C746.386,396.539 750.524,395.535 755.959,393.529C761.393,391.522 766.117,388.847 770.13,385.502C779.327,377.643 783.925,369.366 783.925,360.671ZM1027.97,360.671C1027.97,357.327 1026.64,355.655 1023.96,355.655C1019.28,355.655 1012.17,361.423 1002.64,372.961C996.957,379.984 991.941,387.843 987.593,396.539C990.436,396.539 994.574,395.535 1000.01,393.529C1005.44,391.522 1010.17,388.847 1014.18,385.502C1023.38,377.643 1027.97,369.366 1027.97,360.671ZM1191.51,382.994C1200.04,374.299 1208.48,363.346 1216.85,350.136C1225.2,336.926 1231.35,325.681 1235.28,316.401C1239.21,307.12 1241.17,300.808 1241.17,297.464C1241.17,294.119 1240.59,292.447 1239.42,292.447C1237.75,292.447 1234.57,295.75 1229.89,302.355C1225.2,308.96 1218.89,320.832 1210.95,337.972C1203.01,355.111 1196.53,370.119 1191.51,382.994Z" style="fill:rgb(228,228,228);fill-rule:nonzero;"/>
        </g>
    </g>
</svg>
