<?xml version="1.0" encoding="UTF-8" standalone="no"?>
<svg
   width="100%"
   height="100%"
   viewBox="0 0 64 64"
   version="1.1"
   xml:space="preserve"
   style="fill-rule:evenodd;clip-rule:evenodd;stroke-linecap:round;stroke-linejoin:round;stroke-miterlimit:1.5;"
   id="svg111"
   sodipodi:docname="wineglass.svg"
   inkscape:version="1.1.1 (3bf5ae0d25, 2021-09-20, custom)"
   xmlns:inkscape="http://www.inkscape.org/namespaces/inkscape"
   xmlns:sodipodi="http://sodipodi.sourceforge.net/DTD/sodipodi-0.dtd"
   xmlns="http://www.w3.org/2000/svg"
   xmlns:svg="http://www.w3.org/2000/svg"
   xmlns:serif="http://www.serif.com/"><defs
   id="defs115">
        
    </defs><sodipodi:namedview
   id="namedview113"
   pagecolor="#ffffff"
   bordercolor="#666666"
   borderopacity="1.0"
   inkscape:pageshadow="2"
   inkscape:pageopacity="0.0"
   inkscape:pagecheckerboard="0"
   showgrid="false"
   inkscape:zoom="8.78125"
   inkscape:cx="31.94306"
   inkscape:cy="32"
   inkscape:window-width="1366"
   inkscape:window-height="751"
   inkscape:window-x="0"
   inkscape:window-y="17"
   inkscape:window-maximized="1"
   inkscape:current-layer="svg111" />
    
    <g
   transform="matrix(-4.51774,5.51095e-16,-5.53263e-16,-4.50004,86.2128,53.7268)"
   id="g101">
        <path
   d="M12,4C11.908,4 11.818,4.004 11.728,4.011C9.647,4.187 8,6.355 8,9C8,9.878 8.185,10.74 8.536,11.5L15.464,11.5C15.815,10.74 16,9.878 16,9C16,6.24 14.208,4 12,4"
   style="fill:none;"
   id="path82" />
        <clipPath
   id="_clip1">
            <path
   d="M12,4C11.908,4 11.818,4.004 11.728,4.011C9.647,4.187 8,6.355 8,9C8,9.878 8.185,10.74 8.536,11.5L15.464,11.5C15.815,10.74 16,9.878 16,9C16,6.24 14.208,4 12,4"
   id="path84" />
        </clipPath>
        <g
   clip-path="url(#_clip1)"
   id="g97">
            <g
   id="vin"
   transform="matrix(-1,-1.22465e-16,1.22465e-16,-1,24,16)">
                <rect
   x="4"
   y="7"
   width="15"
   height="6"
   style="fill:rgb(147,32,36);"
   id="rect87" />
            </g>
            <g
   id="glass-look"
   serif:id="glass look"
   transform="matrix(-1,-1.22465e-16,1.22465e-16,-1,23.4368,15.5966)">
                <rect
   x="3.167"
   y="3.39"
   width="15.575"
   height="8.914"
   style="fill:rgb(165,241,246);fill-opacity:0.09;"
   id="rect90" />
            </g>
            <g
   transform="matrix(-0.99931,-0.03714,0.03714,-0.99931,23.7218,15.9524)"
   id="g95">
                <path
   d="M15.392,7.331C14.867,8.582 14.159,9.784 13.242,10.93C13.532,10.951 14.357,10.286 14.86,9.444C15.399,8.543 15.601,7.456 15.392,7.331Z"
   style="fill:white;fill-opacity:0.51;"
   id="path93" />
            </g>
        </g>
        <path
   d="M12,4C11.908,4 11.818,4.004 11.728,4.011C9.647,4.187 8,6.355 8,9C8,9.878 8.185,10.74 8.536,11.5L15.464,11.5C15.815,10.74 16,9.878 16,9C16,6.24 14.208,4 12,4"
   style="fill:none;stroke:rgb(175,193,191);stroke-width:0.11px;"
   id="path99" />
    </g>
    <g
   transform="matrix(5.75431,0,0,3.81039,-37.005,-9.99811)"
   id="g105">
        <rect
   x="11.724"
   y="12"
   width="0.536"
   height="6.371"
   style="fill:rgb(175,193,191);"
   id="rect103" />
    </g>
    <g
   transform="matrix(4.4513,0,0,7.55363,11.4627,-49.562)"
   id="g109">
        <path
   d="M7.078,14.772C7.328,14.728 7.459,14.677 7.459,14.626C7.459,14.464 6.184,14.333 4.614,14.333C3.043,14.333 1.768,14.464 1.768,14.626C1.768,14.677 1.9,14.728 2.149,14.772L7.078,14.772Z"
   style="fill:rgb(175,193,191);"
   id="path107" />
    </g>
</svg>
