<?xml version="1.0" encoding="UTF-8" standalone="no"?>
<svg
   xmlns:dc="http://purl.org/dc/elements/1.1/"
   xmlns:cc="http://creativecommons.org/ns#"
   xmlns:rdf="http://www.w3.org/1999/02/22-rdf-syntax-ns#"
   xmlns:svg="http://www.w3.org/2000/svg"
   xmlns="http://www.w3.org/2000/svg"
   xmlns:sodipodi="http://sodipodi.sourceforge.net/DTD/sodipodi-0.dtd"
   xmlns:inkscape="http://www.inkscape.org/namespaces/inkscape"
   id="svg2"
   sodipodi:docname="wine.svg"
   viewBox="0 0 66.758 250"
   version="1.1"
   inkscape:version="1.0.1 (3bc2e813f5, 2020-09-07)">
  <defs
     id="defs12" />
  <sodipodi:namedview
     id="base"
     bordercolor="#666666"
     inkscape:pageshadow="2"
     inkscape:window-y="17"
     pagecolor="#ffffff"
     inkscape:window-height="1063"
     inkscape:window-maximized="1"
     inkscape:zoom="0.98994949"
     inkscape:snap-nodes="false"
     inkscape:snap-object-midpoints="false"
     showgrid="false"
     borderopacity="1.0"
     inkscape:current-layer="layer1"
     inkscape:cx="-117.43224"
     inkscape:cy="94.702149"
     inkscape:window-x="0"
     inkscape:window-width="1920"
     inkscape:pageopacity="0.0"
     inkscape:document-units="px"
     inkscape:document-rotation="0" />
  <g
     id="layer1"
     inkscape:label="Layer 1"
     inkscape:groupmode="layer"
     transform="translate(116.44 -602.98)">
    <g
       id="g2386"
       transform="matrix(0.24737,0,0,0.24737,-154.6969,607.95088)"
       style="fill:#760101;fill-opacity:0.89999998">
      <rect
         id="rect2382"
         style="fill:#760101;fill-rule:evenodd;fill-opacity:0.89999998"
         height="560"
         width="80"
         y="403.79001"
         x="322.85999" />
      <rect
         id="rect2384"
         style="fill:#760101;fill-rule:evenodd;fill-opacity:0.89999998"
         height="234.28999"
         width="45.714001"
         y="26.648001"
         x="277.14001" />
      <path
         id="path2398"
         sodipodi:nodetypes="cssssccccccccccccccssssccccccccccccccccc"
         style="fill:#760101;fill-opacity:0.89999998"
         d="m 237.11,-14.802 c -2.0828,1.5833 -3.2235,5.4484 -3.6875,12.469 -0.2329,3.5228 -0.9539,7.0414 -1.5938,7.8125 -0.7091,0.85434 -1.3578,7.0229 -1.6562,15.813 -0.414,12.191 -0.2161,14.976 1.2187,18 0.7543,1.5895 1.1648,3.5781 1.2188,13.156 l -6.83,188.74 c 0.48973,7.3004 -1.2397,13.334 -4.8704,19.598 -2.9314,4.7479 -7.6972,10.506 -16.996,21.221 -37.168,39.202 -55.265,89.471 -58.625,142.53 l 0.1562,529.78 c 1.7751,13.738 8.7702,35.164 19.781,39.781 h 230 c 11.011,-4.6175 18.006,-26.043 19.781,-39.781 l 0.1563,-529.78 c -3.3599,-53.061 -21.458,-103.33 -58.625,-142.53 -10.854,-12.506 -15.532,-18.26 -18.326,-23.536 -3.1276,-4.949 -3.2868,-10.244 -3.49,-15.865 l -6.87,-190.15 c 0.0539,-9.5782 0.4645,-11.567 1.2187,-13.156 1.4348,-3.0236 1.6328,-5.8086 1.2188,-18 -0.2984,-8.7896 -0.9472,-14.958 -1.6563,-15.813 -0.6399,-0.77108 -1.3609,-4.2897 -1.5937,-7.8125 -0.4641,-7.0203 -1.6048,-10.885 -3.6875,-12.469 -28.65,-2.2076 -57.603,-2.4136 -86.25,0 z m 72.031,61.112 h 5 v 180 h -5 z m 56,388 v 521 h -6 v -521 z m 21,0 v 521 h -13 v -521 z" />
    </g>
  </g>
  <metadata
     id="metadata9">
    <rdf:RDF>
      <cc:Work>
        <dc:format>image/svg+xml</dc:format>
        <dc:type
           rdf:resource="http://purl.org/dc/dcmitype/StillImage" />
        <cc:license
           rdf:resource="http://creativecommons.org/licenses/publicdomain/" />
        <dc:publisher>
          <cc:Agent
             rdf:about="http://openclipart.org/">
            <dc:title>Openclipart</dc:title>
          </cc:Agent>
        </dc:publisher>
        <dc:title>Wine bottle</dc:title>
        <dc:date>2010-05-18T21:06:33</dc:date>
        <dc:description>Symbolic image of a wine bottle</dc:description>
        <dc:source>https://openclipart.org/detail/60745/wine-bottle-by-rones</dc:source>
        <dc:creator>
          <cc:Agent>
            <dc:title>rones</dc:title>
          </cc:Agent>
        </dc:creator>
        <dc:subject>
          <rdf:Bag>
            <rdf:li>bottle</rdf:li>
            <rdf:li>green</rdf:li>
            <rdf:li>symbolic</rdf:li>
            <rdf:li>wine</rdf:li>
          </rdf:Bag>
        </dc:subject>
      </cc:Work>
      <cc:License
         rdf:about="http://creativecommons.org/licenses/publicdomain/">
        <cc:permits
           rdf:resource="http://creativecommons.org/ns#Reproduction" />
        <cc:permits
           rdf:resource="http://creativecommons.org/ns#Distribution" />
        <cc:permits
           rdf:resource="http://creativecommons.org/ns#DerivativeWorks" />
      </cc:License>
    </rdf:RDF>
  </metadata>
</svg>
