<svg width="40" height="32" viewBox="0 0 40 32" fill="none" xmlns="http://www.w3.org/2000/svg">
<g clip-path="url(#clip0_1365_533)">
<path d="M37.8152 13.3024L37.814 13.3143H11.0478H9.79754L10.703 12.4522L19.1173 4.44102C19.4303 4.14388 19.6002 3.74444 19.6002 3.32608C19.6002 2.90888 19.4317 2.51318 19.1177 2.21422L19.3556 2.5L19.5166 2.82844L19.5919 3.16626V3.48587L19.5166 3.8246L19.3556 4.15444L9.79754 13.3143H27L37.8152 13.3024ZM37.8152 13.3024C38.7645 13.3334 39.5 14.0531 39.5 14.8558V16.6159C39.5 17.4678 38.7277 18.2476 37.7815 18.2476H10.9529H9.69745L10.6091 19.1107L19.118 27.1664C19.4381 27.4699 19.6002 27.8357 19.6002 28.2442C19.6002 28.6604 19.4325 29.0515 19.1182 29.3494L17.8088 30.5939C17.493 30.8933 17.0686 31.0626 16.6075 31.0626C16.1455 31.0626 15.7214 30.8937 15.4058 30.5942L0.982107 16.8917C0.666807 16.5926 0.498788 16.2 0.500015 15.7807L0.500007 15.7778C0.498792 15.3622 0.666119 14.9699 0.982091 14.6697L15.4058 0.968353C15.7212 0.668731 16.1455 0.5 16.6075 0.5C17.0681 0.5 17.4923 0.669559 17.8085 0.969882L19.1177 2.21422L19.3556 2.5L19.5166 2.82844L19.5919 3.16626V3.48587L19.5166 3.8246L19.3556 4.15444L9.79754 13.3143H27L37.8152 13.3024Z" fill="#FFC300"/>
<path d="M37.8152 13.3024L37.814 13.3143H11.0478H9.79754M37.8152 13.3024C38.7645 13.3334 39.5 14.0531 39.5 14.8558V16.6159C39.5 17.4678 38.7277 18.2476 37.7815 18.2476H10.9529H9.69745L10.6091 19.1107L19.118 27.1664C19.4381 27.4699 19.6002 27.8357 19.6002 28.2442C19.6002 28.6604 19.4325 29.0515 19.1182 29.3494L17.8088 30.5939C17.493 30.8933 17.0686 31.0626 16.6075 31.0626C16.1455 31.0626 15.7214 30.8937 15.4058 30.5942L0.982107 16.8917C0.666807 16.5926 0.498788 16.2 0.500015 15.7807L0.500007 15.7778C0.498792 15.3622 0.666119 14.9699 0.982091 14.6697L15.4058 0.968353C15.7212 0.668731 16.1455 0.5 16.6075 0.5C17.0681 0.5 17.4923 0.669559 17.8085 0.969882L19.1177 2.21422M37.8152 13.3024L27 13.3143H9.79754M9.79754 13.3143L10.703 12.4522L19.1173 4.44102C19.4303 4.14388 19.6002 3.74444 19.6002 3.32608C19.6002 2.90888 19.4317 2.51318 19.1177 2.21422M9.79754 13.3143L19.3556 4.15444L19.5166 3.8246L19.5919 3.48587V3.16626L19.5166 2.82844L19.3556 2.5L19.1177 2.21422" stroke="#EA9819"/>
</g>
<defs>
<clipPath id="clip0_1365_533">
<rect width="40" height="32" fill="white"/>
</clipPath>
</defs>
</svg>
